<svg xmlns="http://www.w3.org/2000/svg" xmlns:xlink="http://www.w3.org/1999/xlink" width="1065" zoomAndPan="magnify" viewBox="0 0 798.75 341.999987" height="456" preserveAspectRatio="xMidYMid meet" version="1.0"><metadata/><path fill="#eeeeee" d="M 509.871094 309.039062 C 485.140625 317.765625 453.347656 306.300781 428.496094 309.171875 C 422.578125 309.859375 366.777344 310.164062 366.648438 310.808594 C 352.066406 312.285156 336.964844 310.539062 322.25 312.058594 C 307.75 313.554688 291.839844 314.640625 278.019531 313.355469 C 261.609375 311.828125 247.800781 309.046875 230.789062 307.800781 C 226.125 307.472656 180.386719 306.507812 179.644531 306.578125 C 167.578125 307.746094 129.484375 298.226562 123.195312 296.417969 C 109.273438 292.417969 89.898438 285.21875 80.800781 275.410156 C 64.109375 257.414062 59.078125 225.882812 56.78125 201.585938 C 54.550781 178.15625 50.90625 152.914062 56.957031 129.363281 C 75.003906 59.203125 149.5625 51.792969 208.402344 48.105469 C 234.332031 46.480469 262.917969 52.445312 288.070312 48.363281 C 290.929688 47.898438 298.746094 49.105469 303.152344 48.335938 C 305.84375 47.871094 310.777344 48.777344 312.828125 48.878906 C 318.253906 49.136719 322.320312 48.214844 327.1875 48.675781 C 351.625 51.027344 376.28125 48.429688 401.128906 48.203125 C 431.734375 47.925781 460.640625 50.925781 490.332031 51.367188 C 510.746094 51.671875 528.660156 48.714844 549.625 50.410156 C 593.589844 53.9375 675.90625 52.101562 699.347656 93.519531 C 707.226562 107.4375 713.519531 122.835938 716.734375 141.003906 C 718.179688 149.175781 720.453125 154.703125 721.285156 163.34375 C 721.769531 168.316406 722.015625 174.648438 721.640625 178.59375 C 721.414062 181.023438 720.917969 182.691406 721.640625 186.984375 C 721.910156 188.554688 721.261719 189.445312 722.394531 192.140625 C 722.621094 194.347656 722.828125 198.769531 721.867188 201.457031 C 721.753906 203.527344 716.703125 219.53125 716.40625 223.734375 C 715.632812 234.566406 709.59375 245.320312 704.632812 254.960938 C 692.851562 277.871094 676.863281 288.808594 652.929688 293.378906 C 626.652344 298.394531 598.527344 303.484375 571.75 305.019531 C 559.445312 305.722656 543.816406 306.566406 537.636719 307.21875 C 529.324219 308.105469 509.871094 309.039062 509.871094 309.039062 Z M 509.871094 309.039062 " fill-opacity="1" fill-rule="nonzero"/><path fill="#38b6ff" d="M 233.535156 37.921875 C 242.609375 37.777344 302.242188 34.320312 290.820312 49.320312 C 285.765625 55.949219 247.25 52.265625 239.230469 52.144531 C 225.527344 51.933594 212.015625 53.828125 198.328125 54.003906 C 164.675781 54.4375 125.617188 58.757812 96.609375 77.691406 C 83.386719 86.3125 70.980469 101.78125 64.292969 116.21875 C 60.785156 123.800781 57.332031 134.175781 56.539062 142.445312 C 56.464844 143.25 58.199219 157.542969 55.835938 159.460938 C 36.585938 175.179688 44.175781 125.976562 45.726562 120.902344 C 51.667969 101.347656 63.460938 81.5 79.90625 68.863281 C 120.964844 37.320312 185.015625 38.535156 233.535156 37.921875 Z M 233.535156 37.921875 " fill-opacity="1" fill-rule="nonzero"/><path fill="#ffd058" d="M 509.171875 308.3125 C 509.484375 307.699219 509.902344 307.167969 510.429688 306.722656 C 510.957031 306.277344 511.550781 305.953125 512.210938 305.746094 C 528.121094 300.566406 636.578125 292.746094 652.15625 289.769531 C 676.402344 285.128906 693.511719 276.957031 704.914062 253.777344 C 709.996094 243.4375 712.730469 231.546875 713.34375 220.164062 C 713.503906 217.179688 714.058594 202.40625 714.667969 196.082031 C 714.714844 195.574219 714.84375 195.085938 715.046875 194.621094 C 715.253906 194.152344 715.527344 193.726562 715.867188 193.347656 C 716.207031 192.96875 716.597656 192.648438 717.039062 192.394531 C 717.484375 192.140625 717.953125 191.960938 718.453125 191.855469 C 719.972656 191.542969 721.503906 191.425781 723.054688 191.503906 C 736.902344 190.75 723.144531 247.296875 720.585938 253.191406 C 712.203125 272.507812 697.214844 290.203125 676.738281 297.234375 C 665.621094 301.054688 652.765625 302.132812 641.167969 304.03125 C 632.863281 305.390625 614.019531 307.582031 604.230469 308.972656 C 585.230469 311.675781 565.058594 312.863281 545.820312 313.660156 C 536.917969 314.027344 519.488281 316.128906 514 314.375 C 508.355469 312.585938 508.335938 310.027344 509.171875 308.3125 Z M 509.171875 308.3125 " fill-opacity="1" fill-rule="nonzero"/></svg>