<svg xmlns="http://www.w3.org/2000/svg" xmlns:xlink="http://www.w3.org/1999/xlink" width="800" zoomAndPan="magnify" viewBox="0 0 600 599.999999" height="800" preserveAspectRatio="xMidYMid meet" version="1.0"><metadata/><path stroke-linecap="round" transform="matrix(8.926049, 0, 0, 8.926049, 208.502775, 188.424401)" fill="none" stroke-linejoin="round" d="M 6.360111 16.870108 L 1.000097 24.720201 " stroke="#c9caca" stroke-width="2" stroke-opacity="1" stroke-miterlimit="4"/><path fill="#38b6ff" d="M 222.964844 263.9375 C 243.671875 234.394531 289.195312 230.554688 324.628906 255.371094 C 360.15625 280.273438 372.117188 324.367188 351.410156 353.914062 C 330.699219 383.457031 285.175781 387.386719 249.652344 362.480469 C 214.304688 337.667969 202.34375 293.484375 222.964844 263.9375 Z M 222.964844 263.9375 " fill-opacity="1" fill-rule="nonzero"/><path fill="#38b6ff" d="M 281.695312 257.246094 C 260.542969 277.773438 262.773438 300.714844 283.214844 314.726562 C 303.296875 329.097656 325.703125 323.386719 337.753906 296.519531 C 349.710938 269.652344 350.25 242.25 339.179688 234.929688 C 328.46875 227.074219 302.941406 236.894531 281.785156 257.332031 Z M 281.695312 257.246094 " fill-opacity="1" fill-rule="nonzero"/><path fill="#c9caca" d="M 281.695312 257.246094 C 260.542969 277.773438 262.773438 300.714844 283.214844 314.726562 C 303.296875 329.097656 325.703125 323.386719 337.753906 296.519531 C 349.710938 269.652344 350.25 242.25 339.179688 234.929688 C 328.46875 227.074219 302.941406 236.894531 281.785156 257.332031 Z M 281.695312 257.246094 " fill-opacity="1" fill-rule="nonzero"/><path fill="#38b6ff" d="M 286.515625 208.6875 C 270.269531 231.894531 278.394531 265.546875 304.726562 284.023438 C 331.058594 302.410156 365.511719 298.570312 381.667969 275.363281 C 397.914062 252.15625 389.789062 218.414062 363.460938 200.027344 C 337.128906 181.640625 302.671875 185.480469 286.425781 208.6875 Z M 286.515625 208.6875 " fill-opacity="1" fill-rule="nonzero"/></svg>