<svg xmlns="http://www.w3.org/2000/svg" xmlns:xlink="http://www.w3.org/1999/xlink" width="800" zoomAndPan="magnify" viewBox="0 0 600 599.999999" height="800" preserveAspectRatio="xMidYMid meet" version="1.0"><metadata/><defs><clipPath id="613e54ec06"><path d="M 53.097656 113 L 530.097656 113 L 530.097656 556.542969 L 53.097656 556.542969 Z M 53.097656 113 " clip-rule="nonzero"/></clipPath></defs><g clip-path="url(#613e54ec06)"><path fill="#38b6ff" d="M 53.191406 440.132812 C 53.398438 439.367188 53.550781 438.589844 53.65625 437.804688 C 54.484375 428.828125 56.792969 420.25 60.585938 412.074219 C 65.125 402.003906 71.296875 392.921875 78.457031 384.539062 C 88.058594 373.246094 99.003906 363.527344 110.761719 354.5625 C 124.078125 344.464844 138.144531 335.558594 152.964844 327.84375 L 153.957031 327.316406 C 153.957031 326.621094 154.015625 325.921875 153.957031 325.222656 C 153.433594 317.015625 152.792969 308.808594 152.324219 300.539062 C 151.742188 289.597656 151.21875 278.59375 150.753906 267.59375 C 150.519531 262.003906 150.328125 256.417969 150.171875 250.828125 C 149.765625 233.132812 149.472656 215.4375 149.007812 197.738281 C 148.832031 191.335938 150.289062 185.398438 152.734375 179.578125 C 155.179688 173.757812 157.621094 169.738281 161.757812 165.957031 C 162.804688 164.964844 163.910156 164.035156 165.074219 163.160156 C 184.808594 147.910156 206.289062 135.800781 229.863281 127.59375 C 239.902344 124.066406 250.1875 121.523438 260.714844 119.96875 C 264.964844 119.328125 269.214844 118.921875 273.464844 118.511719 L 289.414062 116.941406 C 294.070312 116.535156 298.667969 116.070312 303.328125 115.71875 C 310.136719 115.253906 317.007812 114.789062 323.816406 114.4375 C 332.78125 113.972656 341.804688 113.796875 350.769531 114.148438 C 356.007812 114.378906 361.304688 114.613281 366.542969 115.136719 C 379.058594 116.300781 391.34375 118.570312 402.984375 123.460938 C 409.230469 125.992188 414.894531 129.464844 419.984375 133.882812 C 423.566406 137.019531 426.589844 140.632812 429.042969 144.71875 C 431.5 148.804688 433.269531 153.167969 434.359375 157.804688 L 434.769531 159.4375 L 436.164062 158.679688 C 443.90625 154.140625 452 150.355469 460.671875 148.085938 C 465.359375 146.800781 470.132812 146.101562 474.992188 145.988281 C 488.90625 145.757812 500.140625 151.226562 508.753906 162.054688 C 514.691406 169.507812 518.652344 178.003906 521.210938 187.144531 C 524.125 197.6875 525.269531 208.417969 524.648438 219.335938 C 523.484375 242.621094 516.613281 264.101562 504.507812 283.949219 C 503.109375 286.222656 501.59375 288.492188 500.023438 290.820312 L 500.722656 291.226562 C 512.539062 297.398438 520.457031 307.003906 525.113281 319.402344 C 527.273438 325.320312 528.6875 331.414062 529.363281 337.679688 C 530.125 344.925781 530.257812 352.183594 529.769531 359.449219 C 528.78125 377.960938 525.054688 395.832031 517.253906 412.832031 C 510.523438 427.390625 501.851562 440.683594 491.234375 452.707031 C 478.484375 467.316406 463.816406 479.773438 447.867188 490.71875 C 428.832031 503.816406 408.457031 514.527344 387.152344 523.492188 C 362.667969 533.757812 337.441406 541.65625 311.476562 547.183594 C 300.453125 549.550781 289.355469 551.453125 278.179688 552.886719 C 269.679688 553.976562 261.160156 554.808594 252.625 555.390625 C 239.777344 556.285156 226.933594 556.535156 214.089844 556.148438 C 204.695312 555.835938 195.324219 555.121094 185.972656 553.996094 C 171.050781 552.253906 156.421875 549.148438 142.082031 544.679688 C 127.46875 540.023438 113.558594 533.851562 100.808594 525.296875 C 88.058594 516.738281 78.511719 507.597656 70.363281 495.667969 C 66.304688 489.773438 62.9375 483.507812 60.269531 476.867188 C 57.597656 470.230469 55.683594 463.378906 54.53125 456.316406 C 54.179688 454.160156 53.949219 452.007812 53.65625 449.796875 C 53.539062 449.097656 53.367188 448.339844 53.191406 447.640625 C 53.191406 445.15625 53.191406 442.65625 53.191406 440.132812 Z M 155.238281 339.890625 L 153.78125 340.648438 C 140.667969 347.785156 128.191406 355.894531 116.351562 364.980469 C 105.640625 373.1875 95.628906 382.210938 86.894531 392.632812 C 80.492188 400.257812 74.90625 408.464844 70.886719 417.605469 C 65.882812 428.957031 63.785156 440.773438 65.765625 453.171875 C 66.621094 458.730469 68.007812 464.152344 69.914062 469.441406 C 71.824219 474.726562 74.226562 479.785156 77.117188 484.605469 C 84.21875 496.421875 93.648438 505.96875 104.882812 513.886719 C 116.117188 521.804688 127.875 527.390625 140.566406 531.816406 C 157.332031 537.695312 174.679688 541.070312 192.316406 542.933594 C 201.804688 543.921875 211.351562 544.449219 220.898438 544.5625 C 235.253906 544.726562 249.574219 544.105469 263.859375 542.699219 C 273.25 541.808594 282.601562 540.546875 291.917969 538.917969 C 306.445312 536.457031 320.804688 533.234375 334.992188 529.253906 C 359.910156 522.210938 384.007812 513.128906 407.058594 501.3125 C 425.746094 491.765625 443.441406 480.589844 459.625 467.085938 C 471.734375 457.015625 482.675781 445.777344 491.933594 433.03125 C 501.1875 420.28125 507.589844 407.941406 512.132812 393.679688 C 514.710938 385.292969 516.457031 376.734375 517.371094 368.007812 C 518.417969 358.578125 518.882812 349.148438 517.894531 339.71875 C 517.34375 333.855469 516.023438 328.167969 513.9375 322.660156 C 511.257812 315.910156 507.359375 310.085938 501.59375 305.546875 C 498.800781 303.332031 495.753906 301.546875 492.457031 300.191406 C 478.601562 315.386719 462.1875 325.863281 441.347656 328.191406 C 441.289062 328.539062 441.171875 328.890625 441.113281 329.179688 C 440.53125 333.257812 440.007812 337.273438 439.367188 341.347656 C 437.960938 350.035156 435.925781 358.574219 433.253906 366.960938 C 429.296875 379.183594 423.183594 390.128906 414.21875 399.441406 C 406.792969 407.0625 398.488281 413.5625 389.304688 418.945312 C 376.847656 426.394531 363.574219 431.984375 349.894531 436.523438 C 337.097656 440.714844 324.078125 444.035156 310.835938 446.476562 C 301.09375 448.300781 291.296875 449.699219 281.4375 450.667969 C 273.640625 451.425781 265.839844 451.890625 258.039062 451.949219 C 248.257812 452.066406 238.480469 451.601562 228.933594 449.328125 C 210.886719 445.082031 195.867188 435.941406 184.050781 421.621094 C 177.574219 413.664062 172.316406 404.972656 168.277344 395.542969 C 164.78125 387.625 161.8125 379.476562 159.894531 371.035156 C 157.972656 362.59375 156.808594 353.339844 155.820312 344.433594 Z M 161.117188 219.160156 C 161.117188 220.09375 161.117188 220.734375 161.117188 221.375 C 161.523438 235.925781 161.871094 250.539062 162.394531 265.089844 C 162.824219 277.199219 163.386719 289.285156 164.085938 301.355469 C 164.667969 311.835938 165.480469 322.371094 166.296875 332.847656 C 166.9375 340.996094 167.925781 349.148438 169.089844 357.238281 C 170.21875 365.519531 172.199219 373.589844 175.027344 381.453125 C 178.578125 391.117188 182.828125 400.375 188.765625 408.816406 C 198.605469 422.902344 211.644531 432.566406 228.292969 437.222656 C 236.382812 439.492188 244.648438 440.308594 253.03125 440.363281 C 268.109375 440.539062 283.070312 439.144531 297.972656 436.871094 C 310.457031 434.992188 322.777344 432.355469 334.933594 428.957031 C 348.148438 425.230469 361.074219 420.574219 373.355469 414.402344 C 383.484375 409.339844 392.972656 403.34375 401.355469 395.71875 C 408.109375 389.546875 413.8125 382.503906 417.828125 374.238281 C 420.675781 368.148438 422.910156 361.84375 424.523438 355.316406 C 426.6875 346.785156 428.296875 338.152344 429.355469 329.414062 C 430.441406 320.992188 431.179688 312.550781 431.566406 304.09375 C 431.800781 298.679688 432.089844 293.324219 432.207031 287.910156 C 432.554688 275.21875 432.382812 262.585938 431.914062 249.898438 C 431.566406 241.046875 431.101562 232.199219 430.636719 223.410156 C 430.402344 218.929688 430.054688 214.503906 429.703125 210.023438 C 429.238281 203.96875 428.65625 197.972656 428.132812 191.917969 C 428.074219 191.453125 428.015625 191.046875 427.957031 190.347656 L 427.144531 191.335938 C 424.785156 194.589844 422.148438 197.597656 419.226562 200.359375 C 412.648438 206.644531 405.136719 211.652344 397.222656 216.019531 C 385.40625 222.480469 372.832031 227.3125 359.910156 231.152344 C 348.785156 234.476562 337.472656 236.921875 325.972656 238.488281 C 320.035156 239.300781 314.039062 239.941406 308.101562 240.464844 C 300.882812 241.046875 293.722656 241.457031 286.503906 241.804688 C 275.675781 242.269531 264.789062 242.328125 253.964844 241.804688 C 246.222656 241.457031 238.539062 240.992188 230.851562 240.292969 C 222.957031 239.609375 215.117188 238.519531 207.335938 237.03125 C 198.195312 235.285156 189.171875 233.074219 180.441406 229.753906 C 174.339844 227.523438 168.636719 224.535156 163.328125 220.792969 Z M 390.292969 206.585938 L 396.523438 202.976562 C 402.367188 199.523438 407.703125 195.410156 412.53125 190.636719 C 416.175781 187.097656 419.105469 183.042969 421.320312 178.472656 C 422.4375 176.167969 423.191406 173.75 423.589844 171.222656 C 423.984375 168.695312 424.003906 166.160156 423.648438 163.628906 C 423.160156 159.96875 422.097656 156.488281 420.464844 153.179688 C 418.828125 149.871094 416.710938 146.914062 414.101562 144.300781 C 409.96875 140.109375 405.023438 137.082031 399.667969 134.695312 C 390.761719 130.796875 381.386719 128.757812 371.785156 127.476562 C 365.789062 126.664062 359.734375 126.199219 353.679688 125.964844 C 345.453125 125.613281 337.207031 125.613281 328.941406 125.964844 C 322.574219 126.199219 316.210938 126.527344 309.847656 126.953125 C 304.722656 127.304688 299.660156 127.769531 294.535156 128.234375 L 278.703125 129.75 C 274.105469 130.214844 269.503906 130.621094 264.964844 131.203125 C 255.0625 132.476562 245.378906 134.710938 235.917969 137.898438 C 212.457031 145.757812 191.210938 157.691406 171.769531 172.824219 C 169.925781 174.277344 168.335938 175.964844 166.996094 177.890625 C 164.070312 182.070312 162.128906 186.671875 161.175781 191.683594 C 159.953125 197.914062 161.523438 203.328125 166.003906 207.808594 C 166.878906 208.683594 167.75 209.5 168.683594 210.253906 C 171.226562 212.304688 173.960938 214.050781 176.890625 215.492188 C 184.515625 219.335938 192.609375 221.78125 200.816406 223.816406 C 201.113281 223.878906 201.410156 223.863281 201.699219 223.769531 C 201.988281 223.675781 202.238281 223.519531 202.445312 223.292969 C 211.878906 216.078125 221.988281 209.984375 232.773438 205.015625 C 243.675781 199.863281 255.042969 196.160156 266.886719 193.898438 C 278.175781 191.890625 289.542969 190.628906 301 190.113281 C 312.859375 189.449219 324.714844 189.507812 336.566406 190.289062 C 345.074219 190.785156 353.496094 191.929688 361.828125 193.722656 C 365.613281 194.597656 369.398438 195.585938 373.121094 196.808594 C 379.410156 198.902344 385.347656 201.757812 390.238281 206.585938 Z M 488.496094 286.570312 L 489.195312 285.640625 C 502.351562 267.769531 509.917969 247.683594 512.480469 225.679688 C 513.453125 217.542969 513.394531 209.414062 512.304688 201.289062 C 511.386719 193.984375 509.410156 186.980469 506.367188 180.277344 C 503.867188 174.863281 500.78125 169.855469 496.472656 165.664062 C 494.289062 163.492188 491.808594 161.730469 489.035156 160.386719 C 486.265625 159.039062 483.347656 158.179688 480.289062 157.804688 C 475.199219 157.234375 470.175781 157.582031 465.214844 158.855469 C 455.433594 161.183594 446.644531 165.605469 438.261719 171.019531 L 437.796875 171.484375 C 438.203125 175.269531 438.667969 179.054688 439.019531 182.777344 C 440.007812 193.605469 440.996094 204.375 441.8125 215.203125 C 442.625 226.03125 443.09375 235.460938 443.5 245.589844 C 444.023438 258.6875 444.316406 271.726562 443.964844 284.824219 C 443.964844 285.171875 444.023438 285.523438 444.023438 285.988281 C 458.925781 283.890625 473.710938 282.902344 488.496094 286.570312 Z M 479.359375 296.757812 C 467.308594 294.835938 455.492188 296.058594 443.617188 297.980469 L 442.453125 316.316406 C 457.121094 314.105469 468.996094 306.945312 479.359375 296.757812 Z M 479.359375 296.757812 " fill-opacity="1" fill-rule="nonzero"/></g><path fill="#38b6ff" d="M 244.242188 64.492188 C 244.121094 56.085938 244.894531 47.761719 246.570312 39.519531 C 247.449219 35.472656 248.574219 31.496094 249.945312 27.585938 C 250.878906 24.851562 252.625 24.792969 254.660156 25.609375 L 258.386719 27.238281 L 259.726562 27.9375 C 261.179688 28.925781 261.472656 29.683594 260.949219 31.371094 C 260.425781 33.058594 259.320312 36.085938 258.679688 38.53125 C 257.429688 43.464844 256.613281 48.472656 256.234375 53.550781 C 255.738281 59.734375 255.679688 65.925781 256.058594 72.117188 C 256.371094 78.019531 257.046875 83.882812 258.097656 89.699219 C 258.386719 91.328125 257.980469 92.609375 256 93.132812 C 254.019531 93.65625 252.21875 94.066406 250.296875 94.414062 C 248.375 94.761719 247.445312 93.714844 246.917969 92.085938 C 246.539062 90.847656 246.269531 89.585938 246.105469 88.300781 C 244.925781 80.410156 244.304688 72.472656 244.242188 64.492188 Z M 244.242188 64.492188 " fill-opacity="1" fill-rule="nonzero"/><path fill="#38b6ff" d="M 314.679688 98.082031 C 313.847656 97.835938 313.03125 97.542969 312.234375 97.207031 C 311.128906 96.683594 310.136719 96.042969 309.089844 95.460938 C 307.109375 94.296875 306.585938 92.898438 307.34375 90.746094 C 307.558594 90.1875 307.8125 89.644531 308.101562 89.117188 C 313.890625 77.996094 318.585938 66.429688 322.1875 54.421875 C 322.304688 53.957031 322.476562 53.550781 322.652344 53.082031 C 323.292969 51.453125 324.398438 50.636719 326.085938 50.871094 C 328.3125 51.03125 330.386719 51.671875 332.316406 52.792969 C 333.886719 53.78125 334.296875 54.65625 333.714844 56.402344 C 332.257812 61.058594 330.800781 65.714844 329.171875 70.3125 C 326.050781 78.839844 322.382812 87.125 318.171875 95.171875 C 317.859375 95.792969 317.511719 96.394531 317.121094 96.976562 C 316.835938 97.355469 316.476562 97.644531 316.042969 97.839844 C 315.609375 98.039062 315.152344 98.117188 314.679688 98.082031 Z M 314.679688 98.082031 " fill-opacity="1" fill-rule="nonzero"/><path fill="#ffffff" d="M 155.238281 339.890625 L 155.703125 344.433594 C 156.691406 353.339844 157.796875 362.304688 159.777344 371.035156 C 161.757812 379.765625 164.667969 387.625 168.160156 395.542969 C 172.199219 404.972656 177.457031 413.664062 183.933594 421.621094 C 195.75 435.941406 210.769531 445.082031 228.816406 449.328125 C 238.421875 451.601562 248.140625 452.066406 257.921875 451.949219 C 265.722656 451.890625 273.582031 451.425781 281.324219 450.667969 C 291.179688 449.699219 300.980469 448.300781 310.71875 446.476562 C 323.960938 444.035156 336.980469 440.714844 349.78125 436.523438 C 363.515625 431.984375 376.789062 426.394531 389.1875 418.941406 C 398.390625 413.566406 406.714844 407.066406 414.160156 399.441406 C 423.125 390.128906 429.238281 379.183594 433.195312 366.960938 C 435.867188 358.574219 437.902344 350.035156 439.308594 341.347656 C 439.949219 337.332031 440.472656 333.257812 441.054688 329.179688 C 441.113281 328.890625 441.171875 328.539062 441.289062 328.191406 C 462.128906 325.863281 478.542969 315.386719 492.398438 300.191406 C 495.695312 301.546875 498.742188 303.332031 501.535156 305.546875 C 507.300781 310.085938 511.199219 315.910156 513.878906 322.660156 C 515.964844 328.167969 517.285156 333.855469 517.835938 339.71875 C 518.824219 349.148438 518.417969 358.578125 517.3125 368.007812 C 516.402344 376.734375 514.65625 385.292969 512.074219 393.679688 C 507.53125 407.941406 500.664062 420.921875 491.875 433.03125 C 483.082031 445.136719 471.675781 457.011719 459.566406 467.085938 C 443.382812 480.589844 425.746094 491.707031 407 501.3125 C 383.949219 513.128906 359.851562 522.210938 334.933594 529.253906 C 320.730469 533.257812 306.351562 536.496094 291.800781 538.976562 C 282.488281 540.566406 273.132812 541.828125 263.742188 542.757812 C 249.457031 544.164062 235.136719 544.785156 220.78125 544.621094 C 211.234375 544.503906 201.6875 543.980469 192.199219 542.992188 C 174.5625 541.128906 157.273438 537.753906 140.449219 531.875 C 127.761719 527.449219 115.769531 521.6875 104.765625 513.945312 C 93.765625 506.203125 84.101562 496.480469 77 484.664062 C 74.109375 479.839844 71.707031 474.785156 69.800781 469.496094 C 67.890625 464.210938 66.507812 458.785156 65.648438 453.230469 C 63.667969 440.832031 65.765625 429.070312 70.769531 417.664062 C 74.789062 408.523438 80.375 400.316406 86.78125 392.691406 C 95.511719 382.328125 105.523438 373.304688 116.292969 365.039062 C 128.136719 355.953125 140.613281 347.839844 153.722656 340.707031 Z M 155.238281 339.890625 " fill-opacity="1" fill-rule="nonzero"/><path fill="#ffffff" d="M 161.058594 219.160156 L 163.210938 220.734375 C 168.519531 224.476562 174.226562 227.464844 180.324219 229.699219 C 189.058594 233.015625 198.082031 235.285156 207.21875 236.972656 C 215.003906 238.460938 222.84375 239.550781 230.738281 240.234375 C 238.421875 240.875 246.164062 241.339844 253.847656 241.746094 C 264.675781 242.269531 275.558594 242.214844 286.386719 241.746094 C 293.605469 241.457031 300.824219 240.992188 307.984375 240.410156 C 313.980469 239.941406 319.917969 239.246094 325.855469 238.429688 C 337.355469 236.863281 348.667969 234.417969 359.792969 231.09375 C 372.714844 227.3125 385.230469 222.480469 397.105469 215.960938 C 405.082031 211.59375 412.53125 206.585938 419.109375 200.300781 C 422.03125 197.539062 424.667969 194.53125 427.027344 191.277344 L 427.839844 190.289062 C 427.898438 190.988281 427.957031 191.394531 428.015625 191.859375 C 428.539062 197.914062 429.0625 203.910156 429.585938 209.964844 C 429.9375 214.445312 430.285156 218.871094 430.519531 223.351562 C 430.984375 232.199219 431.507812 240.992188 431.800781 249.839844 C 432.265625 262.46875 432.382812 275.160156 432.089844 287.851562 C 431.972656 293.265625 431.683594 298.621094 431.449219 304.035156 C 431.0625 312.492188 430.324219 320.933594 429.238281 329.355469 C 428.179688 338.09375 426.570312 346.726562 424.40625 355.261719 C 422.792969 361.785156 420.5625 368.089844 417.710938 374.179688 C 413.695312 382.503906 408.050781 389.488281 401.238281 395.660156 C 392.855469 403.285156 383.308594 409.28125 373.238281 414.34375 C 360.898438 420.515625 348.03125 425.171875 334.820312 428.898438 C 322.660156 432.296875 310.339844 434.9375 297.855469 436.8125 C 282.953125 439.085938 267.992188 440.480469 252.914062 440.308594 C 244.53125 440.25 236.265625 439.433594 228.175781 437.164062 C 211.527344 432.507812 198.488281 422.902344 188.648438 408.757812 C 182.769531 400.316406 178.460938 391 174.910156 381.398438 C 172.125 373.546875 170.183594 365.496094 169.089844 357.238281 C 167.925781 349.148438 166.9375 340.996094 166.296875 332.847656 C 165.480469 322.371094 164.667969 311.890625 164.085938 301.355469 C 163.386719 289.285156 162.824219 277.199219 162.394531 265.089844 C 161.871094 250.539062 161.523438 235.925781 161.117188 221.375 C 161.058594 220.734375 161.058594 220.09375 161.058594 219.160156 Z M 161.058594 219.160156 " fill-opacity="1" fill-rule="nonzero"/><path fill="#ffffff" d="M 390.238281 206.585938 C 385.347656 201.757812 379.410156 198.960938 373.179688 196.867188 C 369.453125 195.644531 365.671875 194.597656 361.886719 193.78125 C 353.554688 191.988281 345.132812 190.84375 336.625 190.347656 C 324.769531 189.566406 312.914062 189.507812 301.054688 190.171875 C 289.601562 190.6875 278.234375 191.949219 266.945312 193.957031 C 255.101562 196.21875 243.730469 199.921875 232.832031 205.074219 C 222.046875 210.042969 211.9375 216.136719 202.503906 223.351562 C 202.296875 223.574219 202.046875 223.734375 201.757812 223.828125 C 201.46875 223.921875 201.171875 223.9375 200.875 223.875 C 192.609375 221.839844 184.515625 219.453125 176.949219 215.550781 C 174.019531 214.109375 171.285156 212.363281 168.742188 210.3125 C 167.808594 209.554688 166.9375 208.742188 166.0625 207.867188 C 161.582031 203.386719 159.953125 197.972656 161.230469 191.742188 C 162.1875 186.730469 164.128906 182.128906 167.054688 177.949219 C 168.390625 176.023438 169.984375 174.332031 171.828125 172.882812 C 191.328125 157.746094 212.574219 145.816406 235.976562 137.957031 C 245.4375 134.765625 255.121094 132.535156 265.023438 131.261719 C 269.5625 130.679688 274.164062 130.273438 278.761719 129.804688 L 294.59375 128.292969 C 299.71875 127.828125 304.78125 127.363281 309.90625 127.011719 C 316.269531 126.585938 322.632812 126.253906 328.996094 126.023438 C 337.226562 125.710938 345.472656 125.710938 353.738281 126.023438 C 359.792969 126.253906 365.847656 126.722656 371.839844 127.535156 C 381.386719 128.816406 390.820312 130.855469 399.726562 134.753906 C 405.082031 137.140625 410.027344 140.109375 414.160156 144.359375 C 416.765625 146.972656 418.886719 149.929688 420.519531 153.238281 C 422.15625 156.546875 423.21875 160.027344 423.707031 163.683594 C 424.0625 166.21875 424.042969 168.75 423.644531 171.28125 C 423.25 173.808594 422.496094 176.226562 421.378906 178.53125 C 419.164062 183.101562 416.230469 187.15625 412.589844 190.695312 C 407.761719 195.46875 402.425781 199.582031 396.582031 203.035156 Z M 390.238281 206.585938 " fill-opacity="1" fill-rule="nonzero"/><path fill="#ffffff" d="M 488.496094 286.570312 C 473.710938 282.902344 458.867188 283.890625 443.964844 286.105469 C 443.90625 285.640625 443.847656 285.289062 443.90625 284.941406 C 444.257812 271.84375 443.964844 258.746094 443.441406 245.707031 C 443.054688 235.578125 442.492188 225.449219 441.753906 215.320312 C 440.996094 204.492188 439.949219 193.722656 438.960938 182.894531 C 438.609375 179.167969 438.144531 175.386719 437.738281 171.601562 L 438.203125 171.136719 C 446.527344 165.664062 455.375 161.300781 465.15625 158.96875 C 470.117188 157.699219 475.140625 157.347656 480.230469 157.921875 C 483.289062 158.296875 486.207031 159.15625 488.980469 160.5 C 491.75 161.847656 494.230469 163.609375 496.414062 165.78125 C 500.722656 169.972656 503.808594 174.980469 506.308594 180.390625 C 509.351562 187.097656 511.328125 194.101562 512.246094 201.40625 C 513.335938 209.53125 513.394531 217.660156 512.421875 225.796875 C 509.863281 247.800781 502.292969 267.824219 489.136719 285.753906 Z M 488.496094 286.570312 " fill-opacity="1" fill-rule="nonzero"/><path fill="#ffffff" d="M 479.359375 296.757812 C 469.054688 306.945312 457.121094 314.105469 442.453125 316.316406 L 443.617188 297.980469 C 455.433594 296.058594 467.308594 294.835938 479.359375 296.757812 Z M 479.359375 296.757812 " fill-opacity="1" fill-rule="nonzero"/></svg>