<svg xmlns="http://www.w3.org/2000/svg" xmlns:xlink="http://www.w3.org/1999/xlink" width="1568" zoomAndPan="magnify" viewBox="0 0 1176 225" height="300" preserveAspectRatio="xMidYMid meet" version="1.0"><metadata/><defs><clipPath id="87a89ad237"><path d="M 165 63 L 355.476562 63 L 355.476562 169 L 165 169 Z M 165 63 " clip-rule="nonzero"/></clipPath><clipPath id="cd1bf021eb"><path d="M 744 47 L 934.125 47 L 934.125 153 L 744 153 Z M 744 47 " clip-rule="nonzero"/></clipPath><clipPath id="9d664f6ffe"><path d="M 118 44 L 290 44 L 290 191.859375 L 118 191.859375 Z M 118 44 " clip-rule="nonzero"/></clipPath><clipPath id="5e5eb9e5f6"><path d="M 115.578125 41 L 292.578125 41 L 292.578125 72 L 115.578125 72 Z M 115.578125 41 " clip-rule="nonzero"/></clipPath><clipPath id="e3ddc5dc41"><path d="M 136 32.859375 L 149 32.859375 L 149 57 L 136 57 Z M 136 32.859375 " clip-rule="nonzero"/></clipPath><clipPath id="49f0af7c2d"><path d="M 165 32.859375 L 178 32.859375 L 178 57 L 165 57 Z M 165 32.859375 " clip-rule="nonzero"/></clipPath><clipPath id="a155616833"><path d="M 230 32.859375 L 243 32.859375 L 243 57 L 230 57 Z M 230 32.859375 " clip-rule="nonzero"/></clipPath><clipPath id="7ec0e5ae4f"><path d="M 260 32.859375 L 272 32.859375 L 272 57 L 260 57 Z M 260 32.859375 " clip-rule="nonzero"/></clipPath></defs><g clip-path="url(#87a89ad237)"><path fill="#ffffff" d="M 178.46875 67.984375 C 167.21875 73.90625 166.542969 76.097656 165.605469 121.691406 C 164.269531 186.804688 204.71875 161.105469 254.511719 167.371094 C 286.679688 171.417969 286.574219 164.214844 326.953125 166.90625 C 345.710938 168.152344 353.851562 162.195312 355.351562 123.089844 C 355.71875 113.5625 354.296875 92.640625 354.117188 90 C 353.902344 86.824219 350.015625 75.820312 349.589844 74.617188 C 344.566406 60.394531 315.574219 68.386719 251.628906 64.363281 C 206.1875 61.503906 184.363281 66.503906 178.46875 67.984375 Z M 178.46875 67.984375 " fill-opacity="1" fill-rule="evenodd"/></g><g clip-path="url(#cd1bf021eb)"><path fill="#ffffff" d="M 757.121094 51.835938 C 745.867188 57.757812 745.191406 59.953125 744.253906 105.546875 C 742.917969 170.660156 783.367188 144.957031 833.160156 151.222656 C 865.328125 155.273438 865.222656 148.066406 905.601562 150.757812 C 924.359375 152.007812 932.5 146.050781 934 106.945312 C 934.367188 97.414062 932.945312 76.492188 932.765625 73.851562 C 932.550781 70.675781 928.664062 59.675781 928.238281 58.46875 C 923.214844 44.246094 894.222656 52.238281 830.28125 48.214844 C 784.835938 45.355469 763.011719 50.355469 757.121094 51.835938 Z M 757.121094 51.835938 " fill-opacity="1" fill-rule="evenodd"/></g><path fill="#38b6ff" d="M 1119.113281 159.453125 C 1110.449219 151.269531 1100.207031 149.117188 1104.226562 139.496094 C 1106.667969 133.703125 1110.257812 131.40625 1109.925781 124.609375 C 1109.253906 112.257812 1117.34375 108.765625 1129.355469 98.523438 C 1119.976562 93.257812 1112.363281 92.828125 1116.480469 84.6875 C 1119.785156 78.132812 1127.25 77.605469 1125.191406 69.421875 C 1123.804688 63.914062 1118.492188 60.898438 1122.367188 54.917969 C 1124.1875 52.09375 1133.761719 49.460938 1132.613281 46.015625 C 1131.511719 42.566406 1115.953125 39.359375 1111.933594 36.585938 C 1117.296875 33.761719 1126.054688 29.164062 1127.875 24.953125 C 1132.132812 14.996094 1112.605469 18.585938 1097.382812 18.636719 C 1064.546875 18.636719 1031.664062 18.636719 998.828125 18.636719 L 225.851562 18.636719 C 181.476562 18.636719 119.730469 13.226562 76.75 22.035156 L 73.78125 26.292969 C 76.558594 27.539062 78.664062 29.023438 80.097656 30.839844 C 62.148438 38.929688 42.285156 38.835938 65.644531 50.5625 C 74.117188 54.820312 92.976562 62.765625 91.730469 70.28125 C 90.390625 78.417969 69.28125 83.539062 60.617188 88.519531 C 43.625 98.234375 48.554688 102.160156 60.714844 111.683594 C 77.179688 124.5625 71.960938 126.234375 50.566406 135.425781 C 60.667969 140.929688 77.035156 139.253906 85.84375 145.382812 C 91.828125 149.546875 99.914062 158.878906 94.699219 164.335938 C 89.050781 170.273438 70.910156 169.363281 63.441406 176.207031 C 56.597656 182.476562 61.335938 186.929688 60.476562 190.808594 C 59.230469 196.550781 67.273438 191.90625 53.679688 197.316406 C 47.933594 199.613281 34.4375 199.804688 38.265625 206.457031 C 41.425781 211.914062 61.382812 209.523438 68.996094 209.523438 C 371.695312 209.523438 674.445312 209.523438 977.144531 209.523438 C 1014.433594 209.523438 1051.71875 209.761719 1088.957031 208.898438 C 1110.976562 208.375 1105.664062 205.359375 1115.140625 195.449219 C 1119.976562 190.375 1129.835938 187.695312 1134.382812 183.339844 C 1141.179688 176.828125 1126.820312 166.777344 1119.113281 159.453125 Z M 1119.113281 159.453125 " fill-opacity="1" fill-rule="nonzero"/><g clip-path="url(#9d664f6ffe)"><path fill="#ffffff" d="M 124.429688 44.660156 L 283.714844 44.660156 C 286.984375 44.660156 289.617188 47.289062 289.617188 50.558594 L 289.617188 186.246094 C 289.617188 189.515625 286.984375 192.144531 283.714844 192.144531 L 124.429688 192.144531 C 121.160156 192.144531 118.53125 189.515625 118.53125 186.246094 L 118.53125 50.558594 C 118.53125 47.289062 121.160156 44.660156 124.429688 44.660156 Z M 124.429688 44.660156 " fill-opacity="1" fill-rule="nonzero"/></g><path fill="#ffd058" d="M 124.429688 44.660156 C 121.160156 44.660156 118.53125 47.289062 118.53125 50.558594 L 118.53125 68.257812 L 289.617188 68.257812 L 289.617188 50.558594 C 289.617188 47.289062 286.984375 44.660156 283.714844 44.660156 Z M 124.429688 44.660156 " fill-opacity="1" fill-rule="nonzero"/><g clip-path="url(#5e5eb9e5f6)"><path fill="#ffd058" d="M 124.429688 41.710938 C 119.578125 41.710938 115.578125 45.707031 115.578125 50.558594 L 115.578125 68.253906 C 115.578125 68.648438 115.65625 69.023438 115.804688 69.386719 C 115.953125 69.746094 116.167969 70.066406 116.445312 70.34375 C 116.71875 70.617188 117.039062 70.832031 117.402344 70.980469 C 117.761719 71.132812 118.140625 71.207031 118.53125 71.207031 L 289.617188 71.207031 C 290.007812 71.207031 290.382812 71.132812 290.746094 70.980469 C 291.105469 70.832031 291.425781 70.617188 291.703125 70.339844 C 291.976562 70.066406 292.191406 69.746094 292.339844 69.382812 C 292.488281 69.023438 292.566406 68.648438 292.5625 68.253906 L 292.5625 50.558594 C 292.5625 45.707031 288.566406 41.710938 283.714844 41.710938 Z M 124.429688 47.609375 L 283.714844 47.609375 C 285.402344 47.609375 286.667969 48.875 286.667969 50.558594 L 286.667969 65.308594 L 121.480469 65.308594 L 121.480469 50.558594 C 121.480469 48.875 122.746094 47.609375 124.429688 47.609375 Z M 124.429688 47.609375 " fill-opacity="1" fill-rule="nonzero"/></g><path fill="#ffd058" d="M 138.589844 85.957031 L 163.367188 85.957031 C 167.941406 85.957031 171.625 89.640625 171.625 94.214844 L 171.625 118.992188 C 171.625 123.566406 167.941406 127.25 163.367188 127.25 L 138.589844 127.25 C 134.011719 127.25 130.328125 123.566406 130.328125 118.992188 L 130.328125 94.214844 C 130.328125 89.640625 134.011719 85.957031 138.589844 85.957031 Z M 138.589844 85.957031 " fill-opacity="1" fill-rule="nonzero"/><path fill="#ffd058" d="M 191.683594 85.957031 L 216.460938 85.957031 C 221.039062 85.957031 224.722656 89.640625 224.722656 94.214844 L 224.722656 118.992188 C 224.722656 123.566406 221.039062 127.25 216.460938 127.25 L 191.683594 127.25 C 187.109375 127.25 183.425781 123.566406 183.425781 118.992188 L 183.425781 94.214844 C 183.425781 89.640625 187.109375 85.957031 191.683594 85.957031 Z M 191.683594 85.957031 " fill-opacity="1" fill-rule="nonzero"/><path fill="#ffd058" d="M 138.589844 139.050781 L 163.367188 139.050781 C 167.941406 139.050781 171.625 142.734375 171.625 147.308594 L 171.625 172.089844 C 171.625 176.664062 167.941406 180.347656 163.367188 180.347656 L 138.589844 180.347656 C 134.011719 180.347656 130.328125 176.664062 130.328125 172.089844 L 130.328125 147.308594 C 130.328125 142.734375 134.011719 139.050781 138.589844 139.050781 Z M 138.589844 139.050781 " fill-opacity="1" fill-rule="nonzero"/><path fill="#ffd058" d="M 191.683594 139.050781 L 216.460938 139.050781 C 221.039062 139.050781 224.722656 142.734375 224.722656 147.308594 L 224.722656 172.089844 C 224.722656 176.664062 221.039062 180.347656 216.460938 180.347656 L 191.683594 180.347656 C 187.109375 180.347656 183.425781 176.664062 183.425781 172.089844 L 183.425781 147.308594 C 183.425781 142.734375 187.109375 139.050781 191.683594 139.050781 Z M 191.683594 139.050781 " fill-opacity="1" fill-rule="nonzero"/><path fill="#ffd058" d="M 244.78125 85.957031 L 269.558594 85.957031 C 274.132812 85.957031 277.816406 89.640625 277.816406 94.214844 L 277.816406 118.992188 C 277.816406 123.566406 274.132812 127.25 269.558594 127.25 L 244.78125 127.25 C 240.203125 127.25 236.519531 123.566406 236.519531 118.992188 L 236.519531 94.214844 C 236.519531 89.640625 240.203125 85.957031 244.78125 85.957031 Z M 244.78125 85.957031 " fill-opacity="1" fill-rule="nonzero"/><path fill="#ffd058" d="M 244.78125 139.050781 L 269.558594 139.050781 C 274.132812 139.050781 277.816406 142.734375 277.816406 147.308594 L 277.816406 172.089844 C 277.816406 176.664062 274.132812 180.347656 269.558594 180.347656 L 244.78125 180.347656 C 240.203125 180.347656 236.519531 176.664062 236.519531 172.089844 L 236.519531 147.308594 C 236.519531 142.734375 240.203125 139.050781 244.78125 139.050781 Z M 244.78125 139.050781 " fill-opacity="1" fill-rule="nonzero"/><g clip-path="url(#e3ddc5dc41)"><path fill="#c9caca" d="M 142.128906 32.859375 C 145.398438 32.859375 148.027344 35.492188 148.027344 38.757812 L 148.027344 50.558594 C 148.027344 53.828125 145.398438 56.457031 142.128906 56.457031 C 138.859375 56.457031 136.230469 53.828125 136.230469 50.558594 L 136.230469 38.757812 C 136.230469 35.492188 138.859375 32.859375 142.128906 32.859375 Z M 142.128906 32.859375 " fill-opacity="1" fill-rule="nonzero"/></g><g clip-path="url(#49f0af7c2d)"><path fill="#c9caca" d="M 171.625 32.859375 C 174.894531 32.859375 177.527344 35.492188 177.527344 38.757812 L 177.527344 50.558594 C 177.527344 53.828125 174.894531 56.457031 171.625 56.457031 C 168.359375 56.457031 165.726562 53.828125 165.726562 50.558594 L 165.726562 38.757812 C 165.726562 35.492188 168.359375 32.859375 171.625 32.859375 Z M 171.625 32.859375 " fill-opacity="1" fill-rule="nonzero"/></g><g clip-path="url(#a155616833)"><path fill="#c9caca" d="M 236.519531 32.859375 C 239.789062 32.859375 242.421875 35.492188 242.421875 38.757812 L 242.421875 50.558594 C 242.421875 53.828125 239.789062 56.457031 236.519531 56.457031 C 233.253906 56.457031 230.621094 53.828125 230.621094 50.558594 L 230.621094 38.757812 C 230.621094 35.492188 233.253906 32.859375 236.519531 32.859375 Z M 236.519531 32.859375 " fill-opacity="1" fill-rule="nonzero"/></g><g clip-path="url(#7ec0e5ae4f)"><path fill="#c9caca" d="M 266.019531 32.859375 C 269.285156 32.859375 271.917969 35.492188 271.917969 38.757812 L 271.917969 50.558594 C 271.917969 53.828125 269.285156 56.457031 266.019531 56.457031 C 262.75 56.457031 260.117188 53.828125 260.117188 50.558594 L 260.117188 38.757812 C 260.117188 35.492188 262.75 32.859375 266.019531 32.859375 Z M 266.019531 32.859375 " fill-opacity="1" fill-rule="nonzero"/></g></svg>