<svg xmlns="http://www.w3.org/2000/svg" xmlns:xlink="http://www.w3.org/1999/xlink" width="800" zoomAndPan="magnify" viewBox="0 0 600 599.999999" height="800" preserveAspectRatio="xMidYMid meet" version="1.0"><metadata/><path fill="#38b6ff" d="M 198.625 294.394531 L 401.488281 294.394531 L 401.488281 408.671875 L 198.625 408.671875 Z M 198.625 294.394531 " fill-opacity="1" fill-rule="nonzero"/><path stroke-linecap="round" transform="matrix(5.839416, 0, 0, 5.839416, 196.057418, 180.000012)" fill="none" stroke-linejoin="round" d="M 34.630164 39.630327 L 34.630164 39.940049 L 30.009759 39.940049 C 29.950223 39.940049 29.890017 39.940049 29.819778 39.940049 C 28.770203 39.940049 26.830261 39.350039 26.250286 37.010068 C 26.079705 36.379922 21.930237 20.990165 21.930237 13.639794 L 21.950305 13.48995 C 21.969705 13.409676 22.3597 11.519906 23.290203 9.860252 C 24.169866 8.290238 24.729773 7.229959 24.729773 7.219925 C 24.779944 7.120252 26.020169 4.550164 23.900281 3.119959 C 21.280022 1.34993 19.629734 1.000071 17.810202 1.000071 C 15.990002 1.000071 14.339714 1.359964 11.720124 3.119959 C 9.590202 4.550164 10.839792 7.130286 10.899997 7.239993 C 10.899997 7.239993 11.459904 8.300272 12.340236 9.860252 C 13.27007 11.519906 13.6701 13.409676 13.680134 13.48995 L 13.700202 13.639794 C 13.700202 20.990165 9.550065 36.379922 9.370119 37.030137 C 8.750007 39.499883 6.589982 40.020322 5.549772 39.930015 L 1.000275 39.930015 " stroke="#c9caca" stroke-width="2" stroke-opacity="1" stroke-miterlimit="4"/><path fill="#309ddd" d="M 238.511719 398.859375 L 198.277344 398.859375 L 198.277344 415.09375 C 198.277344 415.09375 198.277344 419.882812 203.066406 419.882812 L 236.992188 419.882812 C 236.992188 419.882812 245.515625 416.554688 245.515625 410.65625 C 245.515625 404.757812 241.078125 398.859375 238.511719 398.859375 Z M 238.511719 398.859375 " fill-opacity="1" fill-rule="nonzero"/><path fill="#309ddd" d="M 361.664062 398.859375 L 401.898438 398.859375 L 401.898438 415.09375 C 401.898438 415.09375 401.898438 419.882812 397.109375 419.882812 L 363.125 419.882812 C 363.125 419.882812 354.65625 416.554688 354.65625 410.65625 C 354.65625 404.757812 359.09375 398.859375 361.664062 398.859375 Z M 361.664062 398.859375 " fill-opacity="1" fill-rule="nonzero"/><path fill="#309ddd" d="M 355.941406 398.453125 C 349.515625 398.453125 346.890625 406.101562 344.378906 412.410156 C 341.867188 418.714844 340.816406 419.300781 340.816406 419.300781 L 259.296875 419.300781 C 259.296875 419.300781 258.246094 418.714844 255.734375 412.410156 C 253.226562 406.160156 250.597656 398.453125 244.234375 398.453125 Z M 355.941406 398.453125 " fill-opacity="1" fill-rule="nonzero"/></svg>