<svg xmlns="http://www.w3.org/2000/svg" xmlns:xlink="http://www.w3.org/1999/xlink" width="800" zoomAndPan="magnify" viewBox="0 0 600 599.999999" height="800" preserveAspectRatio="xMidYMid meet" version="1.0"><metadata/><defs><clipPath id="e299a351a3"><path d="M 340 351 L 400 351 L 400 415 L 340 415 Z M 340 351 " clip-rule="nonzero"/></clipPath><clipPath id="d45532ed45"><path d="M 349.117188 406.410156 C 349.441406 406.097656 349.753906 405.792969 350.042969 405.5 C 351.105469 404.429688 352.125 403.386719 353.109375 402.375 C 358.734375 396.574219 364.351562 390.765625 369.960938 384.953125 C 370.191406 384.714844 370.449219 384.445312 370.734375 384.144531 C 374.390625 380.296875 378.015625 376.425781 381.609375 372.527344 C 383.292969 370.789062 385.222656 368.648438 386.5625 367.238281 C 389.707031 363.929688 392.992188 360.433594 396.410156 356.757812 C 397.574219 355.503906 398.820312 354.042969 399.730469 352.941406 C 402.777344 349.269531 405.070312 345.027344 406.605469 340.210938 C 408.050781 335.671875 408.75 331.796875 409.699219 326.457031 C 410.078125 324.324219 410.40625 321.914062 410.675781 319.230469 C 411.269531 313.394531 411.628906 309.324219 411.757812 307.019531 C 411.898438 304.480469 411.976562 303.132812 411.992188 302.980469 C 412.074219 302.140625 412.125 301.375 412.144531 300.675781 C 412.203125 298.511719 412.375 296.902344 412.414062 294.902344 C 412.441406 293.605469 412.5625 290.726562 412.773438 286.273438 C 412.847656 284.675781 412.792969 282.839844 412.894531 281.179688 C 413.175781 276.6875 413.089844 272.382812 413.28125 267.925781 C 413.4375 264.207031 413.421875 259.8125 413.574219 255.910156 C 413.679688 253.214844 413.734375 251.484375 413.746094 250.726562 C 413.8125 245.292969 413.980469 241.5 414.074219 236.511719 C 414.152344 232.269531 414.371094 227.292969 414.457031 222.660156 C 414.53125 218.738281 414.714844 215.929688 414.734375 212.472656 C 414.738281 211.898438 414.796875 210.015625 414.910156 206.820312 C 415.011719 203.894531 415.007812 199.445312 415.183594 195.722656 C 415.230469 194.6875 415.265625 193.183594 415.28125 191.21875 C 415.289062 190 415.414062 188.152344 415.414062 186.9375 C 415.414062 186.511719 415.378906 186.179688 415.308594 185.9375 C 415.269531 185.808594 415.183594 185.742188 415.050781 185.742188 C 412.976562 185.726562 411.144531 185.683594 409.550781 185.617188 C 405.980469 185.46875 402.386719 185.359375 398.761719 185.28125 C 397.765625 185.261719 395.914062 185.121094 394.582031 185.109375 C 388.679688 185.054688 385.207031 185.011719 384.175781 184.984375 C 377.785156 184.804688 370.761719 184.789062 363.90625 184.566406 C 360.042969 184.441406 355.136719 184.496094 352 184.378906 C 347.25 184.203125 343.417969 184.097656 340.5 184.066406 C 338.972656 184.050781 336.164062 183.871094 334.316406 183.863281 C 327.976562 183.835938 321.722656 183.597656 315.433594 183.488281 C 314.601562 183.472656 312.699219 183.414062 309.722656 183.3125 C 308.273438 183.265625 305.292969 183.210938 300.773438 183.148438 C 298.550781 183.121094 296.761719 183.039062 294.109375 182.957031 C 291.085938 182.863281 287.433594 182.867188 284.382812 182.722656 C 282.570312 182.632812 280.996094 182.589844 279.648438 182.589844 C 277.652344 182.589844 273.535156 182.511719 267.304688 182.351562 C 262.207031 182.222656 258.894531 182.128906 257.371094 182.070312 C 254.351562 181.957031 251.667969 181.933594 249.054688 181.917969 C 246.195312 181.898438 241.675781 181.695312 238.066406 181.636719 C 235.953125 181.605469 233.722656 181.511719 231.730469 181.410156 C 229.113281 181.269531 225.671875 181.328125 222.878906 181.210938 C 218.675781 181.039062 214.042969 180.96875 210.3125 180.824219 C 207.761719 180.726562 205.707031 180.667969 204.144531 180.652344 C 201.730469 180.628906 199.144531 180.453125 196.605469 180.390625 C 195.019531 180.351562 192.835938 180.257812 190.050781 180.113281 C 189.890625 180.101562 189.804688 180.179688 189.789062 180.339844 C 189.632812 181.980469 189.671875 183.675781 189.617188 185.398438 C 189.492188 189.296875 189.394531 191.863281 189.34375 195.148438 C 189.304688 197.570312 189.25 199.738281 189.183594 201.65625 C 189.019531 206.15625 189.023438 210.71875 188.851562 215.082031 C 188.695312 219.183594 188.730469 222.144531 188.589844 225.804688 C 188.417969 230.328125 188.414062 235.835938 188.234375 240.609375 C 188.066406 245.136719 188.101562 248.503906 187.976562 252.777344 C 187.867188 256.488281 187.796875 259.53125 187.769531 261.90625 C 187.710938 266.984375 187.507812 271.390625 187.457031 276.183594 C 187.414062 280.125 187.339844 284.066406 187.230469 288.007812 C 187.175781 290.007812 187.144531 291.757812 187.132812 293.253906 C 187.09375 298.160156 186.863281 302.902344 186.824219 307.285156 C 186.796875 310.203125 186.757812 312.355469 186.707031 313.746094 C 186.605469 316.585938 186.546875 318.738281 186.53125 320.203125 C 186.496094 324.171875 186.398438 329.335938 186.238281 335.703125 C 186.238281 335.785156 186.203125 337.648438 186.136719 341.292969 C 185.988281 349.316406 185.914062 353.582031 185.90625 354.097656 C 185.886719 355.949219 185.808594 359.574219 185.671875 364.96875 C 185.542969 369.960938 185.570312 374.207031 185.402344 378.460938 C 185.222656 383.027344 185.257812 390.066406 185.050781 394.605469 C 185.023438 395.214844 185.003906 395.695312 185 396.046875 C 184.898438 402.617188 184.824219 406.386719 184.773438 407.363281 C 184.582031 410.902344 184.613281 414.445312 184.578125 417.878906 C 184.574219 418.113281 184.59375 418.3125 184.632812 418.480469 C 184.667969 418.613281 184.753906 418.679688 184.890625 418.679688 C 188.421875 418.683594 192.1875 418.742188 196.183594 418.855469 C 203.363281 419.058594 211.933594 418.980469 219.625 419.183594 C 224.390625 419.308594 230.320312 419.3125 236.699219 419.4375 C 244.355469 419.589844 251.28125 419.664062 257.480469 419.664062 C 258.324219 419.664062 260.25 419.691406 263.253906 419.753906 C 267.136719 419.832031 271.019531 419.847656 274.902344 419.792969 C 282.230469 419.695312 286.535156 419.683594 291.703125 419.457031 C 294.488281 419.335938 296.410156 419.320312 298.59375 419.21875 C 299.605469 419.167969 301.824219 419.078125 305.25 418.949219 C 307.617188 418.859375 310.953125 418.652344 315.261719 418.324219 C 319.605469 417.996094 323.5 417.496094 328.175781 416.570312 C 330.070312 416.195312 332.292969 415.582031 333.875 415.121094 C 336.328125 414.402344 338.722656 413.441406 341.054688 412.242188 C 344.0625 410.695312 346.75 408.75 349.117188 406.410156 Z M 349.117188 406.410156 " clip-rule="nonzero"/></clipPath><clipPath id="163e136527"><path d="M 184.582031 180 L 415.582031 180 L 415.582031 420 L 184.582031 420 Z M 184.582031 180 " clip-rule="nonzero"/></clipPath><clipPath id="6ee3c7b8f8"><path d="M 226 189.777344 L 244.628906 189.777344 L 244.628906 207 L 226 207 Z M 226 189.777344 " clip-rule="nonzero"/></clipPath><clipPath id="1bb6252196"><path d="M 213.8125 215.40625 C 216.125 218.253906 218.363281 220.707031 221.625 222.390625 C 226.6875 225 233.210938 226.265625 238.203125 222.628906 C 241 220.59375 242.84375 218.117188 243.734375 215.203125 C 244.652344 212.21875 244.714844 209.28125 243.929688 206.390625 C 242.664062 201.753906 238.960938 198.792969 234.828125 196.539062 C 233.074219 193.867188 230.476562 191.636719 227.421875 190.601562 C 224.945312 189.761719 222.5 189.574219 220.09375 190.042969 C 209.859375 192.03125 205.371094 203.804688 211.03125 212.335938 C 211.421875 212.917969 211.9375 213.484375 212.613281 214.285156 C 212.652344 214.332031 212.667969 214.386719 212.664062 214.445312 C 212.621094 214.875 212.820312 215.25 213.253906 215.574219 C 213.285156 215.597656 213.316406 215.597656 213.347656 215.582031 C 213.382812 215.566406 213.398438 215.539062 213.398438 215.5 L 213.398438 215.289062 C 213.398438 215.195312 213.441406 215.167969 213.53125 215.203125 C 213.632812 215.25 213.726562 215.316406 213.8125 215.40625 Z M 213.8125 215.40625 " clip-rule="nonzero"/></clipPath><clipPath id="ce3028d667"><path d="M 208.496094 189.777344 L 244.628906 189.777344 L 244.628906 224.980469 L 208.496094 224.980469 Z M 208.496094 189.777344 " clip-rule="nonzero"/></clipPath><clipPath id="2e3d6385a5"><path d="M 213.8125 215.40625 C 216.125 218.253906 218.363281 220.707031 221.625 222.390625 C 226.6875 225 233.210938 226.265625 238.203125 222.628906 C 241 220.59375 242.84375 218.117188 243.734375 215.203125 C 244.652344 212.21875 244.714844 209.28125 243.929688 206.390625 C 242.664062 201.753906 238.960938 198.792969 234.828125 196.539062 C 233.074219 193.867188 230.476562 191.636719 227.421875 190.601562 C 224.945312 189.761719 222.5 189.574219 220.09375 190.042969 C 209.859375 192.03125 205.371094 203.804688 211.03125 212.335938 C 211.421875 212.917969 211.9375 213.484375 212.613281 214.285156 C 212.652344 214.332031 212.667969 214.386719 212.664062 214.445312 C 212.621094 214.875 212.820312 215.25 213.253906 215.574219 C 213.285156 215.597656 213.316406 215.597656 213.347656 215.582031 C 213.382812 215.566406 213.398438 215.539062 213.398438 215.5 L 213.398438 215.289062 C 213.398438 215.195312 213.441406 215.167969 213.53125 215.203125 C 213.632812 215.25 213.726562 215.316406 213.8125 215.40625 Z M 213.8125 215.40625 " clip-rule="nonzero"/></clipPath><clipPath id="fbee66f416"><path d="M 208.496094 206 L 225 206 L 225 224.980469 L 208.496094 224.980469 Z M 208.496094 206 " clip-rule="nonzero"/></clipPath><clipPath id="9e432d2296"><path d="M 213.8125 215.40625 C 216.125 218.253906 218.363281 220.707031 221.625 222.390625 C 226.6875 225 233.210938 226.265625 238.203125 222.628906 C 241 220.59375 242.84375 218.117188 243.734375 215.203125 C 244.652344 212.21875 244.714844 209.28125 243.929688 206.390625 C 242.664062 201.753906 238.960938 198.792969 234.828125 196.539062 C 233.074219 193.867188 230.476562 191.636719 227.421875 190.601562 C 224.945312 189.761719 222.5 189.574219 220.09375 190.042969 C 209.859375 192.03125 205.371094 203.804688 211.03125 212.335938 C 211.421875 212.917969 211.9375 213.484375 212.613281 214.285156 C 212.652344 214.332031 212.667969 214.386719 212.664062 214.445312 C 212.621094 214.875 212.820312 215.25 213.253906 215.574219 C 213.285156 215.597656 213.316406 215.597656 213.347656 215.582031 C 213.382812 215.566406 213.398438 215.539062 213.398438 215.5 L 213.398438 215.289062 C 213.398438 215.195312 213.441406 215.167969 213.53125 215.203125 C 213.632812 215.25 213.726562 215.316406 213.8125 215.40625 Z M 213.8125 215.40625 " clip-rule="nonzero"/></clipPath><clipPath id="c87775e440"><path d="M 208.496094 189.777344 L 244.628906 189.777344 L 244.628906 224.980469 L 208.496094 224.980469 Z M 208.496094 189.777344 " clip-rule="nonzero"/></clipPath><clipPath id="df27cda99d"><path d="M 213.8125 215.40625 C 216.125 218.253906 218.363281 220.707031 221.625 222.390625 C 226.6875 225 233.210938 226.265625 238.203125 222.628906 C 241 220.59375 242.84375 218.117188 243.734375 215.203125 C 244.652344 212.21875 244.714844 209.28125 243.929688 206.390625 C 242.664062 201.753906 238.960938 198.792969 234.828125 196.539062 C 233.074219 193.867188 230.476562 191.636719 227.421875 190.601562 C 224.945312 189.761719 222.5 189.574219 220.09375 190.042969 C 209.859375 192.03125 205.371094 203.804688 211.03125 212.335938 C 211.421875 212.917969 211.9375 213.484375 212.613281 214.285156 C 212.652344 214.332031 212.667969 214.386719 212.664062 214.445312 C 212.621094 214.875 212.820312 215.25 213.253906 215.574219 C 213.285156 215.597656 213.316406 215.597656 213.347656 215.582031 C 213.382812 215.566406 213.398438 215.539062 213.398438 215.5 L 213.398438 215.289062 C 213.398438 215.195312 213.441406 215.167969 213.53125 215.203125 C 213.632812 215.25 213.726562 215.316406 213.8125 215.40625 Z M 213.8125 215.40625 " clip-rule="nonzero"/></clipPath></defs><g clip-path="url(#e299a351a3)"><g clip-path="url(#d45532ed45)"><path stroke-linecap="butt" transform="matrix(0.75, 0, 0, 0.75, 184.581804, 180.000012)" fill="none" stroke-linejoin="miter" d="M 262.70344 256.70312 C 263.021148 254.427078 264.26594 252.640619 265.458648 250.739578 C 266.245107 249.479161 267.166982 248.229161 268.198232 247.302077 C 268.979482 246.593744 269.958648 246.072911 270.92219 245.124994 C 271.979482 244.078119 273.354482 242.869786 275.036774 241.494786 C 275.521149 241.098952 275.781565 240.609369 275.823232 240.031244 C 275.823232 239.999994 275.807607 239.973952 275.781565 239.958327 C 275.755524 239.942702 275.724274 239.942702 275.698232 239.958327 C 272.370107 241.953119 270.401357 243.109369 269.79719 243.432286 C 264.291981 246.395827 258.635731 248.973953 252.838856 251.171869 C 248.088856 252.973953 243.911772 254.406244 240.307605 255.473953 C 234.63573 257.156245 229.344063 258.64062 224.437813 259.942703 C 224.375313 259.958328 224.328438 259.994786 224.297188 260.052078 C 224.271146 260.10937 224.265938 260.17187 224.29198 260.229161 C 225.031563 261.999995 225.60448 263.848953 226.015938 265.781245 C 226.875313 269.807287 227.255522 274.052079 227.16698 278.51562 C 227.07323 283.151037 226.193021 287.755204 224.755521 291.791663 C 223.943021 294.078121 222.66698 296.281246 221.630521 298.135413 C 221.568021 298.244788 221.172188 298.854163 220.432605 299.963538 C 220.031563 300.567705 219.677396 301.20833 219.380521 301.880205 " stroke="#f4c84b" stroke-width="2" stroke-opacity="1" stroke-miterlimit="4"/></g></g><g clip-path="url(#163e136527)"><path fill="#38b6ff" d="M 381.609375 372.527344 C 381.847656 370.820312 382.78125 369.480469 383.675781 368.054688 C 384.265625 367.109375 384.957031 366.171875 385.730469 365.476562 C 386.316406 364.945312 387.050781 364.554688 387.773438 363.84375 C 388.566406 363.058594 389.597656 362.152344 390.859375 361.121094 C 391.222656 360.824219 391.417969 360.457031 391.449219 360.023438 C 391.449219 360 391.4375 359.980469 391.417969 359.96875 C 391.398438 359.957031 391.375 359.957031 391.355469 359.96875 C 388.859375 361.464844 387.382812 362.332031 386.929688 362.574219 C 382.800781 364.796875 378.558594 366.730469 374.210938 368.378906 C 370.648438 369.730469 367.515625 370.804688 364.8125 371.605469 C 360.558594 372.867188 356.589844 373.980469 352.910156 374.957031 C 352.863281 374.96875 352.828125 374.996094 352.804688 375.039062 C 352.785156 375.082031 352.78125 375.128906 352.800781 375.171875 C 353.355469 376.5 353.785156 377.886719 354.09375 379.335938 C 354.738281 382.355469 355.023438 385.539062 354.957031 388.886719 C 354.886719 392.363281 354.226562 395.816406 353.148438 398.84375 C 352.539062 400.558594 351.582031 402.210938 350.804688 403.601562 C 350.757812 403.683594 350.460938 404.140625 349.90625 404.972656 C 349.605469 405.425781 349.339844 405.90625 349.117188 406.410156 C 346.75 408.75 344.0625 410.695312 341.054688 412.242188 C 338.722656 413.441406 336.328125 414.402344 333.875 415.121094 C 332.292969 415.582031 330.070312 416.195312 328.175781 416.570312 C 323.5 417.496094 319.605469 417.996094 315.261719 418.324219 C 310.953125 418.652344 307.617188 418.859375 305.25 418.949219 C 301.824219 419.078125 299.605469 419.167969 298.59375 419.21875 C 296.410156 419.320312 294.488281 419.335938 291.703125 419.457031 C 286.535156 419.683594 282.230469 419.695312 274.902344 419.792969 C 271.019531 419.847656 267.136719 419.832031 263.253906 419.753906 C 260.25 419.691406 258.324219 419.664062 257.480469 419.664062 C 251.28125 419.664062 244.355469 419.589844 236.699219 419.4375 C 230.320312 419.3125 224.390625 419.308594 219.625 419.183594 C 211.933594 418.980469 203.363281 419.058594 196.183594 418.855469 C 192.1875 418.742188 188.421875 418.683594 184.890625 418.679688 C 184.753906 418.679688 184.667969 418.613281 184.632812 418.480469 C 184.59375 418.3125 184.574219 418.113281 184.578125 417.878906 C 184.613281 414.445312 184.582031 410.902344 184.773438 407.363281 C 184.824219 406.386719 184.898438 402.617188 185 396.046875 C 185.003906 395.695312 185.023438 395.214844 185.050781 394.605469 C 185.257812 390.066406 185.222656 383.027344 185.402344 378.460938 C 185.570312 374.207031 185.542969 369.960938 185.671875 364.96875 C 185.808594 359.574219 185.886719 355.949219 185.90625 354.097656 C 185.914062 353.582031 185.988281 349.316406 186.136719 341.292969 C 186.203125 337.648438 186.238281 335.785156 186.238281 335.703125 C 186.398438 329.335938 186.496094 324.171875 186.53125 320.203125 C 186.546875 318.738281 186.605469 316.585938 186.707031 313.746094 C 186.757812 312.355469 186.796875 310.203125 186.824219 307.285156 C 186.863281 302.902344 187.09375 298.160156 187.132812 293.253906 C 187.144531 291.757812 187.175781 290.007812 187.230469 288.007812 C 187.339844 284.066406 187.414062 280.125 187.457031 276.183594 C 187.507812 271.390625 187.710938 266.984375 187.769531 261.90625 C 187.796875 259.53125 187.867188 256.488281 187.976562 252.777344 C 188.101562 248.503906 188.066406 245.136719 188.234375 240.609375 C 188.414062 235.835938 188.417969 230.328125 188.589844 225.804688 C 188.730469 222.144531 188.695312 219.183594 188.851562 215.082031 C 189.023438 210.71875 189.019531 206.15625 189.183594 201.65625 C 189.25 199.738281 189.304688 197.570312 189.34375 195.148438 C 189.394531 191.863281 189.492188 189.296875 189.617188 185.398438 C 189.671875 183.675781 189.632812 181.980469 189.789062 180.339844 C 189.804688 180.179688 189.890625 180.101562 190.050781 180.113281 C 192.835938 180.257812 195.019531 180.351562 196.605469 180.390625 C 199.144531 180.453125 201.730469 180.628906 204.144531 180.652344 C 205.707031 180.667969 207.761719 180.726562 210.3125 180.824219 C 214.042969 180.96875 218.675781 181.039062 222.878906 181.210938 C 225.671875 181.328125 229.113281 181.269531 231.730469 181.410156 C 233.722656 181.511719 235.953125 181.605469 238.066406 181.636719 C 241.675781 181.695312 246.195312 181.898438 249.054688 181.917969 C 251.667969 181.933594 254.351562 181.957031 257.371094 182.070312 C 258.894531 182.128906 262.207031 182.222656 267.304688 182.351562 C 273.535156 182.511719 277.652344 182.589844 279.648438 182.589844 C 280.996094 182.589844 282.570312 182.632812 284.382812 182.722656 C 287.433594 182.867188 291.085938 182.863281 294.109375 182.957031 C 296.761719 183.039062 298.550781 183.121094 300.773438 183.148438 C 305.292969 183.210938 308.273438 183.265625 309.722656 183.3125 C 312.699219 183.414062 314.601562 183.472656 315.433594 183.488281 C 321.722656 183.597656 327.976562 183.835938 334.316406 183.863281 C 336.164062 183.871094 338.972656 184.050781 340.5 184.066406 C 343.417969 184.097656 347.25 184.203125 352 184.378906 C 355.136719 184.496094 360.042969 184.441406 363.90625 184.566406 C 370.761719 184.789062 377.785156 184.804688 384.175781 184.984375 C 385.207031 185.011719 388.679688 185.054688 394.582031 185.109375 C 395.914062 185.121094 397.765625 185.261719 398.761719 185.28125 C 402.386719 185.359375 405.980469 185.46875 409.550781 185.617188 C 411.144531 185.683594 412.976562 185.726562 415.050781 185.742188 C 415.183594 185.742188 415.269531 185.808594 415.308594 185.9375 C 415.378906 186.179688 415.414062 186.511719 415.414062 186.9375 C 415.414062 188.152344 415.289062 190 415.28125 191.21875 C 415.265625 193.183594 415.230469 194.6875 415.183594 195.722656 C 415.007812 199.445312 415.011719 203.894531 414.910156 206.820312 C 414.796875 210.015625 414.738281 211.898438 414.734375 212.472656 C 414.714844 215.929688 414.53125 218.738281 414.457031 222.660156 C 414.371094 227.292969 414.152344 232.269531 414.074219 236.511719 C 413.980469 241.5 413.8125 245.292969 413.746094 250.726562 C 413.734375 251.484375 413.679688 253.214844 413.574219 255.910156 C 413.421875 259.8125 413.4375 264.207031 413.28125 267.925781 C 413.089844 272.382812 413.175781 276.6875 412.894531 281.179688 C 412.792969 282.839844 412.847656 284.675781 412.773438 286.273438 C 412.5625 290.726562 412.441406 293.605469 412.414062 294.902344 C 412.375 296.902344 412.203125 298.511719 412.144531 300.675781 C 412.125 301.375 412.074219 302.140625 411.992188 302.980469 C 411.976562 303.132812 411.898438 304.480469 411.757812 307.019531 C 411.628906 309.324219 411.269531 313.394531 410.675781 319.230469 C 410.40625 321.914062 410.078125 324.324219 409.699219 326.457031 C 408.75 331.796875 408.050781 335.671875 406.605469 340.210938 C 405.070312 345.027344 402.777344 349.269531 399.730469 352.941406 C 398.820312 354.042969 397.574219 355.503906 396.410156 356.757812 C 392.992188 360.433594 389.707031 363.929688 386.5625 367.238281 C 385.222656 368.648438 383.292969 370.789062 381.609375 372.527344 Z M 381.609375 372.527344 " fill-opacity="1" fill-rule="nonzero"/></g><path fill="#309ddd" d="M 381.609375 372.527344 C 378.015625 376.425781 374.390625 380.296875 370.734375 384.144531 C 370.449219 384.445312 370.191406 384.714844 369.960938 384.953125 C 364.351562 390.765625 358.734375 396.574219 353.109375 402.375 C 352.125 403.386719 351.105469 404.429688 350.042969 405.5 C 349.753906 405.792969 349.441406 406.097656 349.117188 406.410156 C 349.339844 405.90625 349.605469 405.425781 349.90625 404.972656 C 350.460938 404.140625 350.757812 403.683594 350.804688 403.601562 C 351.582031 402.210938 352.539062 400.558594 353.148438 398.84375 C 354.226562 395.816406 354.886719 392.363281 354.957031 388.886719 C 355.023438 385.539062 354.738281 382.355469 354.09375 379.335938 C 353.785156 377.886719 353.355469 376.5 352.800781 375.171875 C 352.78125 375.128906 352.78125 375.082031 352.804688 375.039062 C 352.828125 374.996094 352.863281 374.96875 352.910156 374.957031 C 356.589844 373.980469 360.558594 372.867188 364.8125 371.605469 C 367.515625 370.804688 370.648438 369.730469 374.210938 368.378906 C 378.558594 366.730469 382.800781 364.796875 386.929688 362.574219 C 387.382812 362.332031 388.859375 361.464844 391.355469 359.96875 C 391.375 359.957031 391.398438 359.957031 391.417969 359.96875 C 391.4375 359.980469 391.449219 360 391.449219 360.023438 C 391.417969 360.457031 391.222656 360.824219 390.859375 361.121094 C 389.597656 362.152344 388.566406 363.058594 387.773438 363.84375 C 387.050781 364.554688 386.316406 364.945312 385.730469 365.476562 C 384.957031 366.171875 384.265625 367.109375 383.675781 368.054688 C 382.78125 369.480469 381.847656 370.820312 381.609375 372.527344 Z M 381.609375 372.527344 " fill-opacity="1" fill-rule="nonzero"/><g clip-path="url(#6ee3c7b8f8)"><g clip-path="url(#1bb6252196)"><path stroke-linecap="butt" transform="matrix(0.75, 0, 0, 0.75, 184.581804, 180.000012)" fill="none" stroke-linejoin="miter" d="M 66.995098 22.052068 L 68.099265 23.458318 " stroke="#e6c26d" stroke-width="2" stroke-opacity="1" stroke-miterlimit="4"/></g></g><g clip-path="url(#ce3028d667)"><g clip-path="url(#2e3d6385a5)"><path stroke-linecap="butt" transform="matrix(0.75, 0, 0, 0.75, 184.581804, 180.000012)" fill="none" stroke-linejoin="miter" d="M 68.099265 23.458318 C 68.281556 23.760401 68.42739 24.187485 68.536765 24.749985 C 69.557598 30.026027 69.682598 34.848943 67.45864 39.416652 C 66.80239 40.770819 66.375306 41.60936 66.17739 41.932277 C 65.078431 43.749985 63.640931 45.317694 61.875306 46.640611 C 58.073223 49.484361 53.781556 50.739569 48.995097 50.401027 C 47.818014 50.322902 45.500305 49.984361 42.041972 49.395819 " stroke="#f1d78a" stroke-width="2" stroke-opacity="1" stroke-miterlimit="4"/></g></g><g clip-path="url(#fbee66f416)"><g clip-path="url(#9e432d2296)"><path stroke-linecap="butt" transform="matrix(0.75, 0, 0, 0.75, 184.581804, 180.000012)" fill="none" stroke-linejoin="miter" d="M 42.041972 49.395819 L 38.974263 47.208319 " stroke="#e6c26d" stroke-width="2" stroke-opacity="1" stroke-miterlimit="4"/></g></g><g clip-path="url(#c87775e440)"><g clip-path="url(#df27cda99d)"><path stroke-linecap="butt" transform="matrix(0.75, 0, 0, 0.75, 184.581804, 180.000012)" fill="none" stroke-linejoin="miter" d="M 42.041972 49.395819 C 43.187805 50.036444 44.39093 50.552069 45.646139 50.947902 C 45.943014 51.041652 46.213847 51.083319 46.458639 51.067694 C 46.687805 51.052069 46.948222 51.140611 47.239889 51.322902 C 47.328431 51.374986 47.479472 51.427069 47.687806 51.468736 C 48.271139 51.588527 48.875306 51.656236 49.500306 51.671861 C 49.541972 51.671861 49.583639 51.666652 49.625306 51.645819 C 49.771139 51.588527 49.880514 51.598944 49.943014 51.677069 C 50.010722 51.755194 50.094056 51.786444 50.193014 51.765611 C 50.526347 51.703111 50.880514 51.718736 51.250306 51.817694 C 51.255514 51.817694 51.265931 51.817694 51.271139 51.817694 C 56.099264 51.755194 60.344056 50.093736 64.010723 46.833319 C 66.536765 44.588527 68.344056 41.781235 69.432598 38.42186 C 70.984682 33.619777 70.698223 28.901026 68.562806 24.26561 C 68.536765 24.208318 68.541973 24.156235 68.578431 24.10936 C 68.609681 24.062485 68.651348 24.04686 68.698223 24.072901 C 68.719056 24.083318 68.745098 24.104151 68.786765 24.14061 C 68.807598 24.156235 68.828431 24.156235 68.849265 24.135401 C 68.870098 24.119776 68.875306 24.093735 68.859681 24.072901 C 68.854473 24.052068 68.823223 24.04686 68.77114 24.052068 C 68.729473 24.057276 68.693015 24.026026 68.661765 23.95311 C 68.510723 23.593735 68.323223 23.432276 68.099265 23.458318 " stroke="#f4c84b" stroke-width="2" stroke-opacity="1" stroke-miterlimit="4"/></g></g><path fill="#38b6ff" d="M 216.113281 217.046875 C 218.707031 217.488281 220.445312 217.742188 221.328125 217.800781 C 224.917969 218.054688 228.136719 217.113281 230.988281 214.980469 C 232.3125 213.988281 233.390625 212.8125 234.214844 211.449219 C 234.363281 211.207031 234.683594 210.578125 235.175781 209.5625 C 236.84375 206.136719 236.75 202.519531 235.984375 198.5625 C 235.902344 198.140625 235.792969 197.820312 235.65625 197.59375 C 235.824219 197.574219 235.964844 197.695312 236.078125 197.964844 C 236.101562 198.019531 236.128906 198.042969 236.160156 198.039062 C 236.199219 198.035156 236.222656 198.039062 236.226562 198.054688 C 236.238281 198.070312 236.234375 198.089844 236.21875 198.101562 C 236.203125 198.117188 236.1875 198.117188 236.171875 198.105469 C 236.140625 198.078125 236.117188 198.0625 236.105469 198.054688 C 236.070312 198.035156 236.039062 198.046875 236.015625 198.082031 C 235.988281 198.117188 235.984375 198.15625 236.003906 198.199219 C 237.605469 201.675781 237.820312 205.214844 236.65625 208.816406 C 235.839844 211.335938 234.484375 213.441406 232.589844 215.125 C 229.839844 217.570312 226.65625 218.816406 223.035156 218.863281 C 223.03125 218.863281 223.023438 218.863281 223.019531 218.863281 C 222.742188 218.789062 222.476562 218.777344 222.226562 218.824219 C 222.152344 218.839844 222.089844 218.816406 222.039062 218.757812 C 221.992188 218.699219 221.910156 218.691406 221.800781 218.734375 C 221.769531 218.75 221.738281 218.753906 221.707031 218.753906 C 221.238281 218.742188 220.785156 218.691406 220.347656 218.601562 C 220.191406 218.570312 220.078125 218.53125 220.011719 218.492188 C 219.792969 218.355469 219.597656 218.289062 219.425781 218.300781 C 219.242188 218.3125 219.039062 218.28125 218.816406 218.210938 C 217.875 217.914062 216.972656 217.527344 216.113281 217.046875 Z M 216.113281 217.046875 " fill-opacity="1" fill-rule="nonzero"/><path fill="#d9d9d9" d="M 234.828125 196.539062 L 235.65625 197.59375 C 235.792969 197.820312 235.902344 198.140625 235.984375 198.5625 C 236.75 202.519531 236.84375 206.136719 235.175781 209.5625 C 234.683594 210.578125 234.363281 211.207031 234.214844 211.449219 C 233.390625 212.8125 232.3125 213.988281 230.988281 214.980469 C 228.136719 217.113281 224.917969 218.054688 221.328125 217.800781 C 220.445312 217.742188 218.707031 217.488281 216.113281 217.046875 L 213.8125 215.40625 C 213.726562 215.316406 213.632812 215.25 213.53125 215.203125 C 213.5 215.191406 213.46875 215.195312 213.441406 215.210938 C 213.410156 215.230469 213.398438 215.257812 213.398438 215.289062 L 213.398438 215.5 C 213.398438 215.539062 213.382812 215.566406 213.347656 215.582031 C 213.316406 215.597656 213.285156 215.597656 213.253906 215.574219 C 212.820312 215.25 212.621094 214.875 212.664062 214.445312 C 212.667969 214.386719 212.652344 214.332031 212.613281 214.285156 C 211.9375 213.484375 211.421875 212.917969 211.03125 212.335938 C 205.371094 203.804688 209.859375 192.03125 220.09375 190.042969 C 222.5 189.574219 224.945312 189.761719 227.421875 190.601562 C 230.476562 191.636719 233.074219 193.867188 234.828125 196.539062 Z M 234.828125 196.539062 " fill-opacity="1" fill-rule="nonzero"/><path fill="#309ddd" d="M 213.8125 215.40625 L 216.113281 217.046875 C 216.972656 217.527344 217.875 217.914062 218.816406 218.210938 C 219.039062 218.28125 219.242188 218.3125 219.425781 218.300781 C 219.597656 218.289062 219.792969 218.355469 220.011719 218.492188 C 220.078125 218.53125 220.191406 218.570312 220.347656 218.601562 C 220.785156 218.691406 221.238281 218.742188 221.707031 218.753906 C 221.738281 218.753906 221.769531 218.75 221.800781 218.734375 C 221.910156 218.691406 221.992188 218.699219 222.039062 218.757812 C 222.089844 218.816406 222.152344 218.839844 222.226562 218.824219 C 222.476562 218.777344 222.742188 218.789062 223.019531 218.863281 C 223.023438 218.863281 223.03125 218.863281 223.035156 218.863281 C 226.65625 218.816406 229.839844 217.570312 232.589844 215.125 C 234.484375 213.441406 235.839844 211.335938 236.65625 208.816406 C 237.820312 205.214844 237.605469 201.675781 236.003906 198.199219 C 235.984375 198.15625 235.988281 198.117188 236.015625 198.082031 C 236.039062 198.046875 236.070312 198.035156 236.105469 198.054688 C 236.117188 198.0625 236.140625 198.078125 236.171875 198.105469 C 236.1875 198.117188 236.203125 198.117188 236.21875 198.101562 C 236.234375 198.089844 236.238281 198.070312 236.226562 198.054688 C 236.222656 198.039062 236.199219 198.035156 236.160156 198.039062 C 236.128906 198.042969 236.101562 198.019531 236.078125 197.964844 C 235.964844 197.695312 235.824219 197.574219 235.65625 197.59375 L 234.828125 196.539062 C 238.960938 198.792969 242.664062 201.753906 243.929688 206.390625 C 244.714844 209.28125 244.652344 212.21875 243.734375 215.203125 C 242.84375 218.117188 241 220.59375 238.203125 222.628906 C 233.210938 226.265625 226.6875 225 221.625 222.390625 C 218.363281 220.707031 216.125 218.253906 213.8125 215.40625 Z M 213.8125 215.40625 " fill-opacity="1" fill-rule="nonzero"/></svg>