<svg xmlns="http://www.w3.org/2000/svg" xmlns:xlink="http://www.w3.org/1999/xlink" width="1568" zoomAndPan="magnify" viewBox="0 0 1176 374.999991" height="500" preserveAspectRatio="xMidYMid meet" version="1.0"><metadata/><defs><clipPath id="7673ddd49a"><path d="M 80 24.257812 L 169 24.257812 L 169 93 L 80 93 Z M 80 24.257812 " clip-rule="nonzero"/></clipPath><clipPath id="f4201e5818"><path d="M 98 110 L 420.59375 110 L 420.59375 289 L 98 289 Z M 98 110 " clip-rule="nonzero"/></clipPath><clipPath id="158dae4736"><path d="M 769 110 L 1091.769531 110 L 1091.769531 289 L 769 289 Z M 769 110 " clip-rule="nonzero"/></clipPath></defs><path fill="#38b6ff" d="M 152.214844 42.179688 C 158.570312 41.40625 164.035156 39.011719 170.65625 38.695312 C 178.5 38.324219 186.800781 39.921875 194.636719 40.363281 C 210.082031 41.234375 228.175781 35.21875 243.515625 36.523438 C 274.179688 39.125 306.335938 45.839844 337.179688 43.1875 C 368.453125 40.515625 399.960938 44.972656 431.027344 42.195312 C 446.921875 40.785156 460.296875 46.328125 476.53125 45.367188 C 479.730469 45.179688 506.328125 44.628906 511.136719 44.523438 C 514.1875 44.457031 528.152344 43.015625 530.894531 42.851562 C 542.445312 42.171875 554.097656 42.851562 565.714844 42.605469 C 582.144531 42.234375 598.738281 41.5 615.324219 42.515625 C 620.441406 42.84375 636.445312 42.988281 639.882812 43.078125 C 648.003906 43.304688 656.371094 44.542969 664.613281 44.65625 C 679.445312 44.863281 695.707031 42.214844 709.152344 42 C 746.453125 41.394531 784.089844 39.039062 821.269531 37.472656 C 858.917969 35.882812 896.429688 35.117188 933.96875 33.101562 C 952.980469 32.085938 970.851562 30.226562 989.734375 33.632812 C 1004.3125 36.265625 1019.609375 37.515625 1033.855469 39.183594 C 1051 41.171875 1069.003906 41.128906 1085.964844 43.765625 C 1093.289062 44.902344 1095.191406 47.648438 1100.691406 51.144531 C 1104.023438 53.261719 1107.441406 55.039062 1110.835938 57.265625 C 1112.503906 58.359375 1114.4375 59.46875 1115.980469 60.714844 C 1118.292969 62.578125 1119.199219 62.652344 1119.75 63.433594 C 1120.785156 64.933594 1122.023438 66.234375 1123.46875 67.34375 C 1129.421875 71.679688 1143.652344 78.394531 1147.90625 84.996094 L 1147.949219 85.070312 C 1148.238281 85.632812 1152.964844 94.183594 1153.960938 94.964844 C 1157.054688 97.40625 1159.75 103.445312 1162.3125 107.597656 C 1165.890625 113.40625 1166.855469 114.492188 1165.996094 120.695312 C 1164.894531 128.65625 1168.097656 136.792969 1166.863281 144.90625 C 1162.226562 175.339844 1160.269531 210.636719 1151.15625 238.742188 C 1148.332031 247.476562 1142.070312 268.34375 1137.816406 278.066406 C 1129.359375 297.382812 1106.296875 308.046875 1087.878906 316.699219 C 1073.746094 323.324219 1051.808594 318.605469 1036.0625 320.214844 C 1014.957031 322.375 993.3125 322.355469 972.464844 322.742188 C 935.019531 323.433594 897.933594 327.96875 860.847656 330.824219 C 815.4375 334.324219 769.160156 329.671875 724.023438 325.925781 C 683.726562 322.582031 643.222656 323.757812 602.910156 325.8125 C 583.925781 326.777344 565.578125 322.84375 546.628906 324 C 525.429688 325.285156 507.394531 319.757812 486.5 322.699219 C 437.839844 329.53125 388.703125 326.832031 339.820312 329.859375 C 318.394531 331.1875 297.449219 332.730469 276.3125 334.960938 C 263.917969 336.269531 250.5625 336.421875 238.054688 336.925781 C 234.207031 337.082031 218.792969 335.144531 211.101562 336.207031 C 202.082031 337.402344 193.105469 337.148438 184.167969 335.445312 C 171.421875 333.089844 158.421875 329.40625 146.542969 326.46875 C 128.730469 322.0625 105.617188 324.625 86.636719 319.320312 C 68.011719 314.140625 53.097656 308.886719 42.222656 293.761719 C 35.679688 284.652344 31.191406 268.640625 28.140625 257.679688 C 24.84375 245.902344 20.605469 228.023438 17.980469 215.992188 L 17.332031 214.328125 C 13.503906 207.710938 11.351562 197.347656 10.460938 192.257812 C 8.6875 182.457031 7.929688 171.289062 9.242188 162.199219 C 11.820312 144.367188 14.84375 117.976562 31.191406 108.089844 C 33.261719 106.851562 35.167969 105.398438 36.910156 103.730469 C 43.472656 97.386719 76.777344 80.542969 80.886719 78.636719 C 85.902344 76.304688 91.636719 73.226562 96.945312 71.761719 C 99.300781 71.113281 101.902344 69.820312 104.074219 68.742188 C 106.246094 67.664062 108.054688 67.039062 109.207031 66.222656 C 112.476562 63.910156 126.988281 58.121094 128.636719 55.859375 C 129.792969 53.429688 137.988281 49.734375 140.246094 48.0625 C 140.265625 48.042969 146.136719 43.847656 152.214844 42.179688 Z M 152.214844 42.179688 " fill-opacity="1" fill-rule="nonzero"/><g clip-path="url(#7673ddd49a)"><path fill="#ffd058" d="M 141.375 86.898438 C 143.257812 91.992188 148.21875 91.464844 151.960938 91.996094 C 155.164062 92.46875 158.699219 90.746094 162.0625 89.90625 C 164.960938 89.183594 167.542969 87.550781 168.523438 84.808594 C 169.808594 81.222656 168.152344 76.492188 164.835938 73.972656 C 164.214844 73.554688 163.75 73.007812 163.433594 72.332031 C 163.121094 71.65625 163.003906 70.945312 163.085938 70.203125 C 163.234375 66.632812 163.242188 63.015625 161.085938 59.90625 C 159.484375 57.597656 159.378906 54.785156 158.257812 52.292969 C 156.636719 48.640625 154.160156 45.574219 152.195312 42.167969 C 149.839844 39.742188 148.109375 36.785156 145.425781 34.585938 C 140.355469 30.429688 135.203125 26.574219 128.503906 25.484375 C 125.605469 25.019531 122.691406 24.765625 119.753906 24.722656 C 111.082031 24.363281 102.640625 25.03125 94.789062 29.289062 C 89.210938 32.320312 84.207031 35.625 81.992188 42.1875 C 80.597656 46.308594 80.417969 50.417969 80.65625 54.492188 C 80.96875 59.796875 83.792969 61.710938 88.875 65.65625 C 91.703125 67.964844 95.039062 69.386719 98.679688 71.203125 C 101.035156 70.8125 101.429688 69.976562 103.859375 69.035156 C 106.824219 67.621094 107.1875 68.394531 109.984375 65.738281 C 108.699219 64.796875 106.792969 63.660156 105.609375 62.957031 C 102.609375 61.183594 99.855469 59.308594 96.945312 57.25 C 95.578125 56.304688 93.648438 53.636719 93.597656 52.222656 C 93.351562 47.621094 94.539062 44.722656 97.566406 40.769531 C 98.304688 39.8125 99.171875 38.988281 100.167969 38.300781 C 106.328125 33.933594 113.304688 33.675781 120.5 33.785156 C 126.089844 33.867188 130.261719 36.542969 134.195312 39.976562 C 136.824219 42.210938 138.847656 44.898438 140.265625 48.042969 C 142.183594 50.550781 144.253906 52.90625 145.148438 56.128906 C 145.453125 57.257812 145.5 58.460938 146.089844 59.605469 C 147.824219 62.902344 149.253906 66.375 149.058594 70.242188 C 149.003906 71.261719 149.25 72.160156 147.46875 72.347656 C 144.019531 72.710938 139.808594 77.710938 140.171875 81.054688 C 140.195312 83.078125 140.597656 85.027344 141.375 86.898438 Z M 141.375 86.898438 " fill-opacity="1" fill-rule="nonzero"/></g><g clip-path="url(#f4201e5818)"><path fill="#ffffff" d="M 120 117.925781 C 100.917969 127.96875 99.769531 131.691406 98.183594 209.023438 C 95.914062 319.460938 164.519531 275.871094 248.972656 286.496094 C 303.535156 293.363281 303.355469 281.144531 371.84375 285.707031 C 403.65625 287.824219 417.464844 277.722656 420.011719 211.394531 C 420.632812 195.230469 418.222656 159.746094 417.917969 155.265625 C 417.550781 149.878906 410.960938 131.21875 410.238281 129.175781 C 401.714844 105.050781 352.542969 118.605469 244.089844 111.785156 C 167.015625 106.933594 129.992188 115.410156 120 117.925781 Z M 120 117.925781 " fill-opacity="1" fill-rule="evenodd"/></g><path fill="#ffffff" d="M 455.585938 117.925781 C 436.503906 127.96875 435.355469 131.691406 433.769531 209.023438 C 431.5 319.460938 500.105469 275.871094 584.558594 286.496094 C 639.121094 293.363281 638.945312 281.144531 707.429688 285.707031 C 739.242188 287.824219 753.050781 277.722656 755.597656 211.394531 C 756.21875 195.230469 753.808594 159.746094 753.503906 155.265625 C 753.136719 149.878906 746.546875 131.21875 745.824219 129.175781 C 737.300781 105.050781 688.128906 118.605469 579.675781 111.785156 C 502.601562 106.933594 465.578125 115.410156 455.585938 117.925781 Z M 455.585938 117.925781 " fill-opacity="1" fill-rule="evenodd"/><g clip-path="url(#158dae4736)"><path fill="#ffffff" d="M 791.171875 117.925781 C 772.089844 127.96875 770.941406 131.691406 769.355469 209.023438 C 767.085938 319.460938 835.691406 275.871094 920.144531 286.496094 C 974.707031 293.363281 974.53125 281.144531 1043.015625 285.707031 C 1074.828125 287.824219 1088.640625 277.722656 1091.183594 211.394531 C 1091.804688 195.230469 1089.394531 159.746094 1089.09375 155.265625 C 1088.722656 149.878906 1082.132812 131.21875 1081.410156 129.175781 C 1072.886719 105.050781 1023.714844 118.605469 915.261719 111.785156 C 838.1875 106.933594 801.164062 115.410156 791.171875 117.925781 Z M 791.171875 117.925781 " fill-opacity="1" fill-rule="evenodd"/></g></svg>