<svg xmlns="http://www.w3.org/2000/svg" xmlns:xlink="http://www.w3.org/1999/xlink" width="1065" zoomAndPan="magnify" viewBox="0 0 798.75 341.999987" height="456" preserveAspectRatio="xMidYMid meet" version="1.0"><metadata/><path fill="#eeeeee" d="M 540.324219 322.207031 C 512.199219 332.132812 476.046875 319.09375 447.792969 322.359375 C 441.0625 323.140625 377.609375 323.488281 377.464844 324.222656 C 360.878906 325.898438 343.710938 323.914062 326.980469 325.640625 C 310.488281 327.34375 292.398438 328.578125 276.6875 327.117188 C 258.023438 325.382812 242.320312 322.214844 222.976562 320.800781 C 217.675781 320.425781 165.664062 319.328125 164.824219 319.410156 C 151.101562 320.738281 107.785156 309.914062 100.632812 307.855469 C 84.804688 303.308594 62.769531 295.121094 52.425781 283.96875 C 33.449219 263.507812 27.726562 227.652344 25.113281 200.023438 C 22.578125 173.378906 18.433594 144.679688 25.3125 117.898438 C 45.832031 38.117188 130.617188 29.691406 197.523438 25.5 C 227.007812 23.652344 259.511719 30.433594 288.113281 25.792969 C 291.363281 25.265625 300.253906 26.636719 305.261719 25.765625 C 308.324219 25.234375 313.929688 26.265625 316.261719 26.378906 C 322.433594 26.671875 327.058594 25.625 332.59375 26.148438 C 360.378906 28.820312 388.417969 25.871094 416.671875 25.613281 C 451.476562 25.296875 484.34375 28.707031 518.105469 29.207031 C 541.320312 29.554688 561.6875 26.195312 585.527344 28.121094 C 635.519531 32.132812 729.125 30.046875 755.777344 77.140625 C 764.738281 92.96875 771.894531 110.476562 775.550781 131.136719 C 777.191406 140.425781 779.773438 146.714844 780.722656 156.539062 C 781.269531 162.191406 781.554688 169.390625 781.128906 173.875 C 780.867188 176.640625 780.304688 178.539062 781.128906 183.417969 C 781.433594 185.207031 780.695312 186.21875 781.984375 189.285156 C 782.238281 191.792969 782.476562 196.820312 781.382812 199.875 C 781.253906 202.230469 775.511719 220.429688 775.171875 225.207031 C 774.292969 237.523438 767.425781 249.753906 761.789062 260.71875 C 748.390625 286.769531 730.207031 299.203125 702.992188 304.398438 C 673.113281 310.105469 641.132812 315.890625 610.6875 317.636719 C 596.691406 318.433594 578.921875 319.398438 571.898438 320.140625 C 562.441406 321.144531 540.324219 322.207031 540.324219 322.207031 Z M 540.324219 322.207031 " fill-opacity="1" fill-rule="nonzero"/><path fill="#38b6ff" d="M 226.101562 13.917969 C 236.417969 13.757812 304.230469 9.824219 291.238281 26.882812 C 285.488281 34.421875 241.695312 30.230469 232.578125 30.089844 C 216.996094 29.851562 201.628906 32.007812 186.066406 32.207031 C 147.800781 32.699219 103.386719 37.613281 70.402344 59.140625 C 55.367188 68.945312 41.261719 86.535156 33.65625 102.953125 C 29.664062 111.570312 25.742188 123.367188 24.839844 132.777344 C 24.753906 133.6875 26.722656 149.941406 24.035156 152.121094 C 2.148438 170 10.78125 114.046875 12.542969 108.277344 C 19.300781 86.042969 32.710938 63.472656 51.40625 49.105469 C 98.097656 13.234375 170.929688 14.621094 226.101562 13.917969 Z M 226.101562 13.917969 " fill-opacity="1" fill-rule="nonzero"/><path fill="#ffd058" d="M 539.527344 321.382812 C 539.878906 320.683594 540.359375 320.078125 540.957031 319.574219 C 541.558594 319.066406 542.230469 318.699219 542.980469 318.464844 C 561.074219 312.574219 684.402344 303.683594 702.113281 300.296875 C 729.683594 295.019531 749.140625 285.726562 762.105469 259.367188 C 767.886719 247.613281 770.992188 234.09375 771.691406 221.148438 C 771.875 217.753906 772.503906 200.957031 773.199219 193.765625 C 773.253906 193.1875 773.398438 192.632812 773.628906 192.101562 C 773.863281 191.570312 774.171875 191.089844 774.558594 190.65625 C 774.949219 190.222656 775.394531 189.863281 775.894531 189.574219 C 776.398438 189.28125 776.933594 189.078125 777.5 188.960938 C 779.226562 188.601562 780.972656 188.46875 782.734375 188.558594 C 798.480469 187.703125 782.835938 252 779.925781 258.703125 C 770.394531 280.667969 753.351562 300.789062 730.066406 308.785156 C 717.429688 313.128906 702.808594 314.355469 689.621094 316.511719 C 680.179688 318.058594 658.75 320.550781 647.621094 322.132812 C 626.015625 325.203125 603.078125 326.558594 581.199219 327.460938 C 571.074219 327.878906 551.257812 330.269531 545.015625 328.277344 C 538.597656 326.242188 538.574219 323.332031 539.527344 321.382812 Z M 539.527344 321.382812 " fill-opacity="1" fill-rule="nonzero"/></svg>